<svg width="18" height="19" viewBox="0 0 18 19" fill="none" xmlns="http://www.w3.org/2000/svg">
<path d="M15.875 2.20801H13.8125V1.52051C13.8125 1.33817 13.7401 1.1633 13.6111 1.03437C13.4822 0.905441 13.3073 0.833008 13.125 0.833008C12.9427 0.833008 12.7678 0.905441 12.6389 1.03437C12.5099 1.1633 12.4375 1.33817 12.4375 1.52051V2.20801H5.5625V1.52051C5.5625 1.33817 5.49007 1.1633 5.36114 1.03437C5.2322 0.905441 5.05734 0.833008 4.875 0.833008C4.69266 0.833008 4.5178 0.905441 4.38886 1.03437C4.25993 1.1633 4.1875 1.33817 4.1875 1.52051V2.20801H2.125C1.76046 2.20842 1.41096 2.35342 1.15319 2.6112C0.895417 2.86897 0.750417 3.21846 0.75 3.58301V17.333C0.750417 17.6976 0.895417 18.047 1.15319 18.3048C1.41096 18.5626 1.76046 18.7076 2.125 18.708H15.875C16.2395 18.7076 16.589 18.5626 16.8468 18.3048C17.1046 18.047 17.2496 17.6976 17.25 17.333V3.58301C17.2496 3.21846 17.1046 2.86897 16.8468 2.6112C16.589 2.35342 16.2395 2.20842 15.875 2.20801ZM4.1875 3.58301V4.27051C4.1875 4.45284 4.25993 4.62771 4.38886 4.75664C4.5178 4.88557 4.69266 4.95801 4.875 4.95801C5.05734 4.95801 5.2322 4.88557 5.36114 4.75664C5.49007 4.62771 5.5625 4.45284 5.5625 4.27051V3.58301H12.4375V4.27051C12.4375 4.45284 12.5099 4.62771 12.6389 4.75664C12.7678 4.88557 12.9427 4.95801 13.125 4.95801C13.3073 4.95801 13.4822 4.88557 13.6111 4.75664C13.7401 4.62771 13.8125 4.45284 13.8125 4.27051V3.58301H15.875L15.8752 6.33301H2.125V3.58301H4.1875ZM15.875 17.333H2.125V7.70801H15.8753L15.8758 17.333H15.875Z" fill="#9BF3FC"/>
</svg>
