<svg width="58" height="54" viewBox="0 0 58 54" fill="none" xmlns="http://www.w3.org/2000/svg">
<g clip-path="url(#clip0_925_5754)">
<path d="M27.9501 33.8053C29.4414 33.8053 30.6503 32.5866 30.6503 31.0833C30.6503 29.58 29.4414 28.3613 27.9501 28.3613C26.4589 28.3613 25.25 29.58 25.25 31.0833C25.25 32.5866 26.4589 33.8053 27.9501 33.8053Z" fill="white"/>
<path d="M23.7051 3.83887C24.898 6.24387 25.4139 8.9326 25.1966 11.6126C25.0198 13.3539 24.5069 14.6733 24.4774 17.6449C24.4493 18.9176 24.5481 20.1899 24.7722 21.4427C25.0419 22.9125 25.4997 24.3409 26.134 25.692" stroke="white" stroke-width="2.5" stroke-linecap="round" stroke-linejoin="bevel"/>
<path d="M22.1547 2.7101C22.8971 2.7101 23.4989 2.10343 23.4989 1.35505C23.4989 0.606677 22.8971 0 22.1547 0C21.4124 0 20.8105 0.606677 20.8105 1.35505C20.8105 2.10343 21.4124 2.7101 22.1547 2.7101Z" fill="white"/>
<path d="M27.7741 18.3409C27.4728 17.4923 27.3818 16.5823 27.5088 15.6902C27.5872 15.2261 27.7259 14.7745 27.9215 14.347C28.1781 13.8255 28.3493 13.2655 28.4285 12.6889C28.5113 11.9065 28.4145 11.1155 28.1455 10.377" stroke="white" stroke-width="2.5" stroke-linecap="round" stroke-linejoin="bevel"/>
<path d="M32.4258 21.0744V16.8309C31.7834 16.2505 31.0772 15.746 30.3211 15.3273C29.5762 14.9078 28.7846 14.5786 27.9629 14.3467" stroke="white" stroke-width="2.5" stroke-linecap="round" stroke-linejoin="bevel"/>
<path d="M39.5933 5.8418C35.4379 7.84488 31.9303 10.9935 29.4766 14.923" stroke="white" stroke-width="2.5" stroke-linecap="round" stroke-linejoin="bevel"/>
<path d="M53.7438 40.5031C51.0806 40.352 48.5094 39.4681 46.3095 37.9475C44.9005 36.9253 44.0221 35.8199 41.4752 34.3162C40.395 33.6584 39.2513 33.1128 38.0617 32.6878C36.662 32.1964 35.2059 31.8869 33.7285 31.7666" stroke="white" stroke-width="2.5" stroke-linecap="round" stroke-linejoin="bevel"/>
<path d="M56.6567 41.7335C57.399 41.7335 58.0009 41.1269 58.0009 40.3785C58.0009 39.6301 57.399 39.0234 56.6567 39.0234C55.9143 39.0234 55.3125 39.6301 55.3125 40.3785C55.3125 41.1269 55.9143 41.7335 56.6567 41.7335Z" fill="white"/>
<path d="M39.2402 36.8535C40.1202 37.0116 40.9482 37.3851 41.6515 37.9411C42.0127 38.2475 42.3336 38.599 42.6066 38.9871C42.9291 39.4706 43.3273 39.8981 43.7857 40.253C44.4166 40.7154 45.145 41.0245 45.9139 41.1564" stroke="white" stroke-width="2" stroke-linecap="round" stroke-linejoin="bevel"/>
<path d="M34.5898 39.546L38.2392 41.6499C39.8792 41.1131 41.3742 40.202 42.6077 38.9873" stroke="white" stroke-width="2" stroke-linecap="round" stroke-linejoin="bevel"/>
<path d="M44.1226 53.4061C44.462 48.7797 43.4931 44.1512 41.3281 40.0576" stroke="white" stroke-width="2" stroke-linecap="round" stroke-linejoin="bevel"/>
<path d="M6.34961 47.5868C7.90943 45.4063 10.032 43.6982 12.4868 42.648C14.1022 41.9942 15.4994 41.8397 18.1229 40.4847C19.2531 39.9183 20.3253 39.2415 21.3242 38.464C22.4878 37.5388 23.5281 36.4661 24.4193 35.2725" stroke="white" stroke-width="2.5" stroke-linecap="round" stroke-linejoin="bevel"/>
<path d="M4.893 51.4796C5.63537 51.4796 6.23718 50.873 6.23718 50.1246C6.23718 49.3762 5.63537 48.7695 4.893 48.7695C4.15064 48.7695 3.54883 49.3762 3.54883 50.1246C3.54883 50.873 4.15064 51.4796 4.893 51.4796Z" fill="white"/>
<path d="M17.2022 37.2041C16.5962 37.8692 15.8369 38.3735 14.9914 38.6721C14.5485 38.8171 14.0887 38.903 13.6236 38.9276C13.0461 38.941 12.4745 39.0494 11.9316 39.2486C11.2009 39.5395 10.5471 39.9972 10.0215 40.5858" stroke="white" stroke-width="2.5" stroke-linecap="round" stroke-linejoin="bevel"/>
<path d="M17.4569 31.8203L13.7309 33.7935C13.3033 35.48 13.2669 37.2432 13.6248 38.9462" stroke="white" stroke-width="2.5" stroke-linecap="round" stroke-linejoin="bevel"/>
<path d="M0.736328 32.4502C4.42146 35.2271 8.81287 36.8924 13.3999 37.2523" stroke="white" stroke-width="2.5" stroke-linecap="round" stroke-linejoin="bevel"/>
</g>
<defs>
<clipPath id="clip0_925_5754">
<rect width="58" height="54" fill="white"/>
</clipPath>
</defs>
</svg>
