<svg width="17" height="17" viewBox="0 0 17 17" fill="none" xmlns="http://www.w3.org/2000/svg">
<path d="M8.5 0C6.81886 0 5.17547 0.498516 3.77766 1.43251C2.37984 2.3665 1.29037 3.69402 0.647028 5.24719C0.00368292 6.80036 -0.164645 8.50943 0.163329 10.1583C0.491303 11.8071 1.30085 13.3217 2.4896 14.5104C3.67834 15.6992 5.1929 16.5087 6.84173 16.8367C8.49057 17.1646 10.1996 16.9963 11.7528 16.353C13.306 15.7096 14.6335 14.6202 15.5675 13.2223C16.5015 11.8245 17 10.1811 17 8.5C16.9974 6.24644 16.1011 4.08592 14.5076 2.49241C12.9141 0.898903 10.7536 0.00255063 8.5 0ZM8.5 15.6923C7.0775 15.6923 5.68694 15.2705 4.50417 14.4802C3.3214 13.6899 2.39955 12.5666 1.85518 11.2524C1.31081 9.93815 1.16838 8.49202 1.44589 7.09685C1.72341 5.70168 2.40841 4.42013 3.41427 3.41427C4.42014 2.40841 5.70168 1.72341 7.09685 1.44589C8.49202 1.16837 9.93816 1.31081 11.2524 1.85517C12.5666 2.39954 13.6899 3.3214 14.4802 4.50417C15.2705 5.68694 15.6923 7.07749 15.6923 8.5C15.6902 10.4069 14.9317 12.235 13.5834 13.5833C12.235 14.9317 10.4069 15.6902 8.5 15.6923ZM13.7308 8.5C13.7308 8.58586 13.7139 8.67089 13.681 8.75022C13.6481 8.82955 13.6 8.90163 13.5393 8.96234C13.4786 9.02306 13.4065 9.07122 13.3271 9.10408C13.2478 9.13694 13.1628 9.15385 13.0769 9.15384H8.5C8.41414 9.15385 8.32911 9.13694 8.24978 9.10408C8.17045 9.07122 8.09837 9.02306 8.03766 8.96234C7.97694 8.90163 7.92878 8.82955 7.89592 8.75022C7.86306 8.67089 7.84615 8.58586 7.84616 8.5V3.92308C7.84616 3.74967 7.91504 3.58336 8.03766 3.46074C8.16028 3.33812 8.32659 3.26923 8.5 3.26923C8.67341 3.26923 8.83972 3.33812 8.96234 3.46074C9.08496 3.58336 9.15385 3.74967 9.15385 3.92308V7.84615H13.0769C13.1628 7.84615 13.2478 7.86306 13.3271 7.89592C13.4065 7.92878 13.4786 7.97694 13.5393 8.03765C13.6 8.09837 13.6481 8.17045 13.681 8.24978C13.7139 8.32911 13.7308 8.41413 13.7308 8.5Z" fill="#9BF3FC"/>
</svg>
