<svg width="174" height="172" viewBox="0 0 174 172" fill="none" xmlns="http://www.w3.org/2000/svg">
<circle cx="81.5" cy="81.5" r="81.5" fill="#87A8A4" fill-opacity="0.1"/>
<path d="M133.669 17H80C74.4772 17 70 21.4772 70 27V80.5C70 86.0229 74.4736 90.5 79.9964 90.5H95.6319C100.899 90.5 105.374 94.606 105.009 99.8608C103.43 122.573 90.0019 133.545 78.7099 137.844C73.9272 139.664 70 143.882 70 148.999V166.457C70 169.234 72.2727 171.492 75.0472 171.367C120.594 169.318 139.535 144.767 140.5 124.5L143.664 27.3254C143.848 21.678 139.32 17 133.669 17Z" fill="#042221" fill-opacity="0.71"/>
<path d="M133.669 17H80C74.4772 17 70 21.4772 70 27V80.5C70 86.0229 74.4736 90.5 79.9964 90.5H95.6319C100.899 90.5 105.374 94.606 105.009 99.8608C103.43 122.573 90.0019 133.545 78.7099 137.844C73.9272 139.664 70 143.882 70 148.999V166.457C70 169.234 72.2727 171.492 75.0472 171.367C120.594 169.318 139.535 144.767 140.5 124.5L143.664 27.3254C143.848 21.678 139.32 17 133.669 17Z" stroke="url(#paint0_linear_925_5798)" style="mix-blend-mode:screen"/>
<path d="M16.1638 8H43C45.7614 8 48 10.2386 48 13V40.1068C48 42.8682 45.7632 45.1068 43.0018 45.1068H35.187C32.5521 45.1068 30.3152 47.1621 30.4927 49.7911C31.269 61.2901 37.9976 66.84 43.6519 69.0111C46.0388 69.9276 48 72.0347 48 74.5916V80.956C48 83.7335 45.7247 86.0061 42.9574 85.7683C22.0019 83.9671 13.2144 72.118 12.75 62.2718L11.1664 13.1611C11.0754 10.338 13.3392 8 16.1638 8Z" fill="#021B1A" fill-opacity="0.77"/>
<path d="M16.1638 8H43C45.7614 8 48 10.2386 48 13V40.1068C48 42.8682 45.7632 45.1068 43.0018 45.1068H35.187C32.5521 45.1068 30.3152 47.1621 30.4927 49.7911C31.269 61.2901 37.9976 66.84 43.6519 69.0111C46.0388 69.9276 48 72.0347 48 74.5916V80.956C48 83.7335 45.7247 86.0061 42.9574 85.7683C22.0019 83.9671 13.2144 72.118 12.75 62.2718L11.1664 13.1611C11.0754 10.338 13.3392 8 16.1638 8Z" stroke="url(#paint1_linear_925_5798)" style="mix-blend-mode:screen"/>
<path d="M6.02294 14.5V9.5C5.85627 7.66667 6.52294 4 10.5229 4C14.5229 4 17.1899 4 18.0234 4" stroke="#448F83"/>
<path d="M115.678 116.691C111.678 135.091 126.345 143.024 134.178 144.691L139.178 152.691L143.678 144.691C149.844 143.691 162.478 137.691 163.678 121.691C165.178 101.691 144.678 97.1906 143.678 97.1906C142.678 97.1906 120.678 93.6906 115.678 116.691Z" fill="#072220" stroke="#448F83"/>
<path d="M137 86.2872C146.667 84.9539 167.4 87.5872 173 108.787" stroke="#448F83"/>
<defs>
<linearGradient id="paint0_linear_925_5798" x1="85.6664" y1="9.94739" x2="177.259" y2="145.491" gradientUnits="userSpaceOnUse">
<stop stop-color="#207E47"/>
<stop offset="0.96" stop-color="#001827"/>
</linearGradient>
<linearGradient id="paint1_linear_925_5798" x1="40.1668" y1="4.43946" x2="-6.23942" y2="72.4534" gradientUnits="userSpaceOnUse">
<stop stop-color="#207E47"/>
<stop offset="0.96" stop-color="#001827"/>
</linearGradient>
</defs>
</svg>
