<svg width="880" height="720" viewBox="0 0 880 720" fill="none" xmlns="http://www.w3.org/2000/svg">
<g opacity="0.5">
<rect x="0.25" y="0.25" width="59.5" height="59.5" rx="4.75" fill="#041E1A" fill-opacity="0.6"/>
<rect x="0.25" y="0.25" width="59.5" height="59.5" rx="4.75" stroke="url(#paint0_linear_1_4)" stroke-width="0.5" style="mix-blend-mode:screen"/>
</g>
<g opacity="0.5">
<rect x="0.25" y="60.25" width="59.5" height="59.5" rx="4.75" fill="#041E1A" fill-opacity="0.6"/>
<rect x="0.25" y="60.25" width="59.5" height="59.5" rx="4.75" stroke="url(#paint1_linear_1_4)" stroke-width="0.5" style="mix-blend-mode:screen"/>
</g>
<g opacity="0.5">
<rect x="0.25" y="120.25" width="59.5" height="59.5" rx="4.75" fill="#041E1A" fill-opacity="0.6"/>
<rect x="0.25" y="120.25" width="59.5" height="59.5" rx="4.75" stroke="url(#paint2_linear_1_4)" stroke-width="0.5" style="mix-blend-mode:screen"/>
</g>
<g opacity="0.5">
<rect x="0.25" y="180.25" width="59.5" height="59.5" rx="4.75" fill="#041E1A" fill-opacity="0.6"/>
<rect x="0.25" y="180.25" width="59.5" height="59.5" rx="4.75" stroke="url(#paint3_linear_1_4)" stroke-width="0.5" style="mix-blend-mode:screen"/>
</g>
<g opacity="0.5">
<rect x="0.25" y="240.25" width="59.5" height="59.5" rx="4.75" fill="#041E1A" fill-opacity="0.6"/>
<rect x="0.25" y="240.25" width="59.5" height="59.5" rx="4.75" stroke="url(#paint4_linear_1_4)" stroke-width="0.5" style="mix-blend-mode:screen"/>
</g>
<g opacity="0.5">
<rect x="0.25" y="300.25" width="59.5" height="59.5" rx="4.75" fill="#041E1A" fill-opacity="0.6"/>
<rect x="0.25" y="300.25" width="59.5" height="59.5" rx="4.75" stroke="url(#paint5_linear_1_4)" stroke-width="0.5" style="mix-blend-mode:screen"/>
</g>
<g opacity="0.5">
<rect x="180.25" y="300.25" width="59.5" height="59.5" rx="4.75" fill="#041E1A" fill-opacity="0.6"/>
<rect x="180.25" y="300.25" width="59.5" height="59.5" rx="4.75" stroke="url(#paint6_linear_1_4)" stroke-width="0.5" style="mix-blend-mode:screen"/>
</g>
<g opacity="0.5">
<rect x="360.25" y="300.25" width="59.5" height="59.5" rx="4.75" fill="#041E1A" fill-opacity="0.6"/>
<rect x="360.25" y="300.25" width="59.5" height="59.5" rx="4.75" stroke="url(#paint7_linear_1_4)" stroke-width="0.5" style="mix-blend-mode:screen"/>
</g>
<g opacity="0.5">
<rect x="540.25" y="300.25" width="59.5" height="59.5" rx="4.75" fill="#041E1A" fill-opacity="0.6"/>
<rect x="540.25" y="300.25" width="59.5" height="59.5" rx="4.75" stroke="url(#paint8_linear_1_4)" stroke-width="0.5" style="mix-blend-mode:screen"/>
</g>
<g opacity="0.5">
<rect x="720.25" y="300.25" width="59.5" height="59.5" rx="4.75" fill="#041E1A" fill-opacity="0.6"/>
<rect x="720.25" y="300.25" width="59.5" height="59.5" rx="4.75" stroke="url(#paint9_linear_1_4)" stroke-width="0.5" style="mix-blend-mode:screen"/>
</g>
<g opacity="0.5">
<rect x="720.25" y="420.25" width="59.5" height="59.5" rx="4.75" fill="#041E1A" fill-opacity="0.6"/>
<rect x="720.25" y="420.25" width="59.5" height="59.5" rx="4.75" stroke="url(#paint10_linear_1_4)" stroke-width="0.5" style="mix-blend-mode:screen"/>
</g>
<g opacity="0.5">
<rect x="720.25" y="540.25" width="59.5" height="59.5" rx="4.75" fill="#041E1A" fill-opacity="0.6"/>
<rect x="720.25" y="540.25" width="59.5" height="59.5" rx="4.75" stroke="url(#paint11_linear_1_4)" stroke-width="0.5" style="mix-blend-mode:screen"/>
</g>
<g opacity="0.5">
<rect x="720.25" y="660.25" width="59.5" height="59.5" rx="4.75" fill="#041E1A" fill-opacity="0.6"/>
<rect x="720.25" y="660.25" width="59.5" height="59.5" rx="4.75" stroke="url(#paint12_linear_1_4)" stroke-width="0.5" style="mix-blend-mode:screen"/>
</g>
<g opacity="0.5">
<rect x="0.25" y="360.25" width="59.5" height="59.5" rx="4.75" fill="#041E1A" fill-opacity="0.6"/>
<rect x="0.25" y="360.25" width="59.5" height="59.5" rx="4.75" stroke="url(#paint13_linear_1_4)" stroke-width="0.5" style="mix-blend-mode:screen"/>
</g>
<g opacity="0.5">
<rect x="180.25" y="360.25" width="59.5" height="59.5" rx="4.75" fill="#041E1A" fill-opacity="0.6"/>
<rect x="180.25" y="360.25" width="59.5" height="59.5" rx="4.75" stroke="url(#paint14_linear_1_4)" stroke-width="0.5" style="mix-blend-mode:screen"/>
</g>
<g opacity="0.5">
<rect x="360.25" y="360.25" width="59.5" height="59.5" rx="4.75" fill="#041E1A" fill-opacity="0.6"/>
<rect x="360.25" y="360.25" width="59.5" height="59.5" rx="4.75" stroke="url(#paint15_linear_1_4)" stroke-width="0.5" style="mix-blend-mode:screen"/>
</g>
<g opacity="0.5">
<rect x="540.25" y="360.25" width="59.5" height="59.5" rx="4.75" fill="#041E1A" fill-opacity="0.6"/>
<rect x="540.25" y="360.25" width="59.5" height="59.5" rx="4.75" stroke="url(#paint16_linear_1_4)" stroke-width="0.5" style="mix-blend-mode:screen"/>
</g>
<g opacity="0.5">
<rect x="720.25" y="360.25" width="59.5" height="59.5" rx="4.75" fill="#041E1A" fill-opacity="0.6"/>
<rect x="720.25" y="360.25" width="59.5" height="59.5" rx="4.75" stroke="url(#paint17_linear_1_4)" stroke-width="0.5" style="mix-blend-mode:screen"/>
</g>
<g opacity="0.5">
<rect x="720.25" y="480.25" width="59.5" height="59.5" rx="4.75" fill="#041E1A" fill-opacity="0.6"/>
<rect x="720.25" y="480.25" width="59.5" height="59.5" rx="4.75" stroke="url(#paint18_linear_1_4)" stroke-width="0.5" style="mix-blend-mode:screen"/>
</g>
<g opacity="0.5">
<rect x="720.25" y="600.25" width="59.5" height="59.5" rx="4.75" fill="#041E1A" fill-opacity="0.6"/>
<rect x="720.25" y="600.25" width="59.5" height="59.5" rx="4.75" stroke="url(#paint19_linear_1_4)" stroke-width="0.5" style="mix-blend-mode:screen"/>
</g>
<g opacity="0.5">
<rect x="60.25" y="0.25" width="59.5" height="59.5" rx="4.75" fill="#041E1A" fill-opacity="0.6"/>
<rect x="60.25" y="0.25" width="59.5" height="59.5" rx="4.75" stroke="url(#paint20_linear_1_4)" stroke-width="0.5" style="mix-blend-mode:screen"/>
</g>
<g opacity="0.5">
<rect x="60.25" y="60.25" width="59.5" height="59.5" rx="4.75" fill="#041E1A" fill-opacity="0.6"/>
<rect x="60.25" y="60.25" width="59.5" height="59.5" rx="4.75" stroke="url(#paint21_linear_1_4)" stroke-width="0.5" style="mix-blend-mode:screen"/>
</g>
<g opacity="0.5">
<rect x="60.25" y="120.25" width="59.5" height="59.5" rx="4.75" fill="#041E1A" fill-opacity="0.6"/>
<rect x="60.25" y="120.25" width="59.5" height="59.5" rx="4.75" stroke="url(#paint22_linear_1_4)" stroke-width="0.5" style="mix-blend-mode:screen"/>
</g>
<g opacity="0.5">
<rect x="60.25" y="180.25" width="59.5" height="59.5" rx="4.75" fill="#041E1A" fill-opacity="0.6"/>
<rect x="60.25" y="180.25" width="59.5" height="59.5" rx="4.75" stroke="url(#paint23_linear_1_4)" stroke-width="0.5" style="mix-blend-mode:screen"/>
</g>
<g opacity="0.5">
<rect x="60.25" y="240.25" width="59.5" height="59.5" rx="4.75" fill="#041E1A" fill-opacity="0.6"/>
<rect x="60.25" y="240.25" width="59.5" height="59.5" rx="4.75" stroke="url(#paint24_linear_1_4)" stroke-width="0.5" style="mix-blend-mode:screen"/>
</g>
<g opacity="0.5">
<rect x="60.25" y="300.25" width="59.5" height="59.5" rx="4.75" fill="#041E1A" fill-opacity="0.6"/>
<rect x="60.25" y="300.25" width="59.5" height="59.5" rx="4.75" stroke="url(#paint25_linear_1_4)" stroke-width="0.5" style="mix-blend-mode:screen"/>
</g>
<g opacity="0.5">
<rect x="240.25" y="300.25" width="59.5" height="59.5" rx="4.75" fill="#041E1A" fill-opacity="0.6"/>
<rect x="240.25" y="300.25" width="59.5" height="59.5" rx="4.75" stroke="url(#paint26_linear_1_4)" stroke-width="0.5" style="mix-blend-mode:screen"/>
</g>
<g opacity="0.5">
<rect x="420.25" y="300.25" width="59.5" height="59.5" rx="4.75" fill="#041E1A" fill-opacity="0.6"/>
<rect x="420.25" y="300.25" width="59.5" height="59.5" rx="4.75" stroke="url(#paint27_linear_1_4)" stroke-width="0.5" style="mix-blend-mode:screen"/>
</g>
<g opacity="0.5">
<rect x="600.25" y="300.25" width="59.5" height="59.5" rx="4.75" fill="#041E1A" fill-opacity="0.6"/>
<rect x="600.25" y="300.25" width="59.5" height="59.5" rx="4.75" stroke="url(#paint28_linear_1_4)" stroke-width="0.5" style="mix-blend-mode:screen"/>
</g>
<g opacity="0.5">
<rect x="600.25" y="420.25" width="59.5" height="59.5" rx="4.75" fill="#041E1A" fill-opacity="0.6"/>
<rect x="600.25" y="420.25" width="59.5" height="59.5" rx="4.75" stroke="url(#paint29_linear_1_4)" stroke-width="0.5" style="mix-blend-mode:screen"/>
</g>
<g opacity="0.5">
<rect x="600.25" y="540.25" width="59.5" height="59.5" rx="4.75" fill="#041E1A" fill-opacity="0.6"/>
<rect x="600.25" y="540.25" width="59.5" height="59.5" rx="4.75" stroke="url(#paint30_linear_1_4)" stroke-width="0.5" style="mix-blend-mode:screen"/>
</g>
<g opacity="0.5">
<rect x="600.25" y="660.25" width="59.5" height="59.5" rx="4.75" fill="#041E1A" fill-opacity="0.6"/>
<rect x="600.25" y="660.25" width="59.5" height="59.5" rx="4.75" stroke="url(#paint31_linear_1_4)" stroke-width="0.5" style="mix-blend-mode:screen"/>
</g>
<g opacity="0.5">
<rect x="780.25" y="660.25" width="59.5" height="59.5" rx="4.75" fill="#041E1A" fill-opacity="0.6"/>
<rect x="780.25" y="660.25" width="59.5" height="59.5" rx="4.75" stroke="url(#paint32_linear_1_4)" stroke-width="0.5" style="mix-blend-mode:screen"/>
</g>
<g opacity="0.5">
<rect x="60.25" y="360.25" width="59.5" height="59.5" rx="4.75" fill="#041E1A" fill-opacity="0.6"/>
<rect x="60.25" y="360.25" width="59.5" height="59.5" rx="4.75" stroke="url(#paint33_linear_1_4)" stroke-width="0.5" style="mix-blend-mode:screen"/>
</g>
<g opacity="0.5">
<rect x="240.25" y="360.25" width="59.5" height="59.5" rx="4.75" fill="#041E1A" fill-opacity="0.6"/>
<rect x="240.25" y="360.25" width="59.5" height="59.5" rx="4.75" stroke="url(#paint34_linear_1_4)" stroke-width="0.5" style="mix-blend-mode:screen"/>
</g>
<g opacity="0.5">
<rect x="420.25" y="360.25" width="59.5" height="59.5" rx="4.75" fill="#041E1A" fill-opacity="0.6"/>
<rect x="420.25" y="360.25" width="59.5" height="59.5" rx="4.75" stroke="url(#paint35_linear_1_4)" stroke-width="0.5" style="mix-blend-mode:screen"/>
</g>
<g opacity="0.5">
<rect x="600.25" y="360.25" width="59.5" height="59.5" rx="4.75" fill="#041E1A" fill-opacity="0.6"/>
<rect x="600.25" y="360.25" width="59.5" height="59.5" rx="4.75" stroke="url(#paint36_linear_1_4)" stroke-width="0.5" style="mix-blend-mode:screen"/>
</g>
<g opacity="0.5">
<rect x="600.25" y="480.25" width="59.5" height="59.5" rx="4.75" fill="#041E1A" fill-opacity="0.6"/>
<rect x="600.25" y="480.25" width="59.5" height="59.5" rx="4.75" stroke="url(#paint37_linear_1_4)" stroke-width="0.5" style="mix-blend-mode:screen"/>
</g>
<g opacity="0.5">
<rect x="600.25" y="600.25" width="59.5" height="59.5" rx="4.75" fill="#041E1A" fill-opacity="0.6"/>
<rect x="600.25" y="600.25" width="59.5" height="59.5" rx="4.75" stroke="url(#paint38_linear_1_4)" stroke-width="0.5" style="mix-blend-mode:screen"/>
</g>
<g opacity="0.5">
<rect x="120.25" y="0.25" width="59.5" height="59.5" rx="4.75" fill="#041E1A" fill-opacity="0.6"/>
<rect x="120.25" y="0.25" width="59.5" height="59.5" rx="4.75" stroke="url(#paint39_linear_1_4)" stroke-width="0.5" style="mix-blend-mode:screen"/>
</g>
<g opacity="0.5">
<rect x="120.25" y="60.25" width="59.5" height="59.5" rx="4.75" fill="#041E1A" fill-opacity="0.6"/>
<rect x="120.25" y="60.25" width="59.5" height="59.5" rx="4.75" stroke="url(#paint40_linear_1_4)" stroke-width="0.5" style="mix-blend-mode:screen"/>
</g>
<g opacity="0.5">
<rect x="120.25" y="120.25" width="59.5" height="59.5" rx="4.75" fill="#041E1A" fill-opacity="0.6"/>
<rect x="120.25" y="120.25" width="59.5" height="59.5" rx="4.75" stroke="url(#paint41_linear_1_4)" stroke-width="0.5" style="mix-blend-mode:screen"/>
</g>
<g opacity="0.5">
<rect x="120.25" y="180.25" width="59.5" height="59.5" rx="4.75" fill="#041E1A" fill-opacity="0.6"/>
<rect x="120.25" y="180.25" width="59.5" height="59.5" rx="4.75" stroke="url(#paint42_linear_1_4)" stroke-width="0.5" style="mix-blend-mode:screen"/>
</g>
<g opacity="0.5">
<rect x="120.25" y="240.25" width="59.5" height="59.5" rx="4.75" fill="#041E1A" fill-opacity="0.6"/>
<rect x="120.25" y="240.25" width="59.5" height="59.5" rx="4.75" stroke="url(#paint43_linear_1_4)" stroke-width="0.5" style="mix-blend-mode:screen"/>
</g>
<g opacity="0.5">
<rect x="120.25" y="300.25" width="59.5" height="59.5" rx="4.75" fill="#041E1A" fill-opacity="0.6"/>
<rect x="120.25" y="300.25" width="59.5" height="59.5" rx="4.75" stroke="url(#paint44_linear_1_4)" stroke-width="0.5" style="mix-blend-mode:screen"/>
</g>
<g opacity="0.5">
<rect x="300.25" y="300.25" width="59.5" height="59.5" rx="4.75" fill="#041E1A" fill-opacity="0.6"/>
<rect x="300.25" y="300.25" width="59.5" height="59.5" rx="4.75" stroke="url(#paint45_linear_1_4)" stroke-width="0.5" style="mix-blend-mode:screen"/>
</g>
<g opacity="0.5">
<rect x="480.25" y="300.25" width="59.5" height="59.5" rx="4.75" fill="#041E1A" fill-opacity="0.6"/>
<rect x="480.25" y="300.25" width="59.5" height="59.5" rx="4.75" stroke="url(#paint46_linear_1_4)" stroke-width="0.5" style="mix-blend-mode:screen"/>
</g>
<g opacity="0.5">
<rect x="660.25" y="300.25" width="59.5" height="59.5" rx="4.75" fill="#041E1A" fill-opacity="0.6"/>
<rect x="660.25" y="300.25" width="59.5" height="59.5" rx="4.75" stroke="url(#paint47_linear_1_4)" stroke-width="0.5" style="mix-blend-mode:screen"/>
</g>
<g opacity="0.5">
<rect x="660.25" y="420.25" width="59.5" height="59.5" rx="4.75" fill="#041E1A" fill-opacity="0.6"/>
<rect x="660.25" y="420.25" width="59.5" height="59.5" rx="4.75" stroke="url(#paint48_linear_1_4)" stroke-width="0.5" style="mix-blend-mode:screen"/>
</g>
<g opacity="0.5">
<rect x="660.25" y="540.25" width="59.5" height="59.5" rx="4.75" fill="#041E1A" fill-opacity="0.6"/>
<rect x="660.25" y="540.25" width="59.5" height="59.5" rx="4.75" stroke="url(#paint49_linear_1_4)" stroke-width="0.5" style="mix-blend-mode:screen"/>
</g>
<g opacity="0.5">
<rect x="660.25" y="660.25" width="59.5" height="59.5" rx="4.75" fill="#041E1A" fill-opacity="0.6"/>
<rect x="660.25" y="660.25" width="59.5" height="59.5" rx="4.75" stroke="url(#paint50_linear_1_4)" stroke-width="0.5" style="mix-blend-mode:screen"/>
</g>
<g opacity="0.5">
<rect x="840.25" y="660.25" width="59.5" height="59.5" rx="4.75" fill="#041E1A" fill-opacity="0.6"/>
<rect x="840.25" y="660.25" width="59.5" height="59.5" rx="4.75" stroke="url(#paint51_linear_1_4)" stroke-width="0.5" style="mix-blend-mode:screen"/>
</g>
<g opacity="0.5">
<rect x="120.25" y="360.25" width="59.5" height="59.5" rx="4.75" fill="#041E1A" fill-opacity="0.6"/>
<rect x="120.25" y="360.25" width="59.5" height="59.5" rx="4.75" stroke="url(#paint52_linear_1_4)" stroke-width="0.5" style="mix-blend-mode:screen"/>
</g>
<g opacity="0.5">
<rect x="300.25" y="360.25" width="59.5" height="59.5" rx="4.75" fill="#041E1A" fill-opacity="0.6"/>
<rect x="300.25" y="360.25" width="59.5" height="59.5" rx="4.75" stroke="url(#paint53_linear_1_4)" stroke-width="0.5" style="mix-blend-mode:screen"/>
</g>
<g opacity="0.5">
<rect x="480.25" y="360.25" width="59.5" height="59.5" rx="4.75" fill="#041E1A" fill-opacity="0.6"/>
<rect x="480.25" y="360.25" width="59.5" height="59.5" rx="4.75" stroke="url(#paint54_linear_1_4)" stroke-width="0.5" style="mix-blend-mode:screen"/>
</g>
<g opacity="0.5">
<rect x="660.25" y="360.25" width="59.5" height="59.5" rx="4.75" fill="#041E1A" fill-opacity="0.6"/>
<rect x="660.25" y="360.25" width="59.5" height="59.5" rx="4.75" stroke="url(#paint55_linear_1_4)" stroke-width="0.5" style="mix-blend-mode:screen"/>
</g>
<g opacity="0.5">
<rect x="660.25" y="480.25" width="59.5" height="59.5" rx="4.75" fill="#041E1A" fill-opacity="0.6"/>
<rect x="660.25" y="480.25" width="59.5" height="59.5" rx="4.75" stroke="url(#paint56_linear_1_4)" stroke-width="0.5" style="mix-blend-mode:screen"/>
</g>
<g opacity="0.5">
<rect x="660.25" y="600.25" width="59.5" height="59.5" rx="4.75" fill="#041E1A" fill-opacity="0.6"/>
<rect x="660.25" y="600.25" width="59.5" height="59.5" rx="4.75" stroke="url(#paint57_linear_1_4)" stroke-width="0.5" style="mix-blend-mode:screen"/>
</g>
<defs>
<linearGradient id="paint0_linear_1_4" x1="12.7025" y1="-2.73888" x2="35.1657" y2="66.6654" gradientUnits="userSpaceOnUse">
<stop stop-color="#207E47"/>
<stop offset="0.96" stop-color="#001827"/>
</linearGradient>
<linearGradient id="paint1_linear_1_4" x1="12.7025" y1="57.2611" x2="35.1657" y2="126.665" gradientUnits="userSpaceOnUse">
<stop stop-color="#207E47"/>
<stop offset="0.96" stop-color="#001827"/>
</linearGradient>
<linearGradient id="paint2_linear_1_4" x1="12.7025" y1="117.261" x2="35.1657" y2="186.665" gradientUnits="userSpaceOnUse">
<stop stop-color="#207E47"/>
<stop offset="0.96" stop-color="#001827"/>
</linearGradient>
<linearGradient id="paint3_linear_1_4" x1="12.7025" y1="177.261" x2="35.1657" y2="246.665" gradientUnits="userSpaceOnUse">
<stop stop-color="#207E47"/>
<stop offset="0.96" stop-color="#001827"/>
</linearGradient>
<linearGradient id="paint4_linear_1_4" x1="12.7025" y1="237.261" x2="35.1657" y2="306.665" gradientUnits="userSpaceOnUse">
<stop stop-color="#207E47"/>
<stop offset="0.96" stop-color="#001827"/>
</linearGradient>
<linearGradient id="paint5_linear_1_4" x1="12.7025" y1="297.261" x2="35.1657" y2="366.665" gradientUnits="userSpaceOnUse">
<stop stop-color="#207E47"/>
<stop offset="0.96" stop-color="#001827"/>
</linearGradient>
<linearGradient id="paint6_linear_1_4" x1="192.703" y1="297.261" x2="215.166" y2="366.665" gradientUnits="userSpaceOnUse">
<stop stop-color="#207E47"/>
<stop offset="0.96" stop-color="#001827"/>
</linearGradient>
<linearGradient id="paint7_linear_1_4" x1="372.703" y1="297.261" x2="395.166" y2="366.665" gradientUnits="userSpaceOnUse">
<stop stop-color="#207E47"/>
<stop offset="0.96" stop-color="#001827"/>
</linearGradient>
<linearGradient id="paint8_linear_1_4" x1="552.703" y1="297.261" x2="575.166" y2="366.665" gradientUnits="userSpaceOnUse">
<stop stop-color="#207E47"/>
<stop offset="0.96" stop-color="#001827"/>
</linearGradient>
<linearGradient id="paint9_linear_1_4" x1="732.703" y1="297.261" x2="755.166" y2="366.665" gradientUnits="userSpaceOnUse">
<stop stop-color="#207E47"/>
<stop offset="0.96" stop-color="#001827"/>
</linearGradient>
<linearGradient id="paint10_linear_1_4" x1="732.703" y1="417.261" x2="755.166" y2="486.665" gradientUnits="userSpaceOnUse">
<stop stop-color="#207E47"/>
<stop offset="0.96" stop-color="#001827"/>
</linearGradient>
<linearGradient id="paint11_linear_1_4" x1="732.703" y1="537.261" x2="755.166" y2="606.665" gradientUnits="userSpaceOnUse">
<stop stop-color="#207E47"/>
<stop offset="0.96" stop-color="#001827"/>
</linearGradient>
<linearGradient id="paint12_linear_1_4" x1="732.703" y1="657.261" x2="755.166" y2="726.665" gradientUnits="userSpaceOnUse">
<stop stop-color="#207E47"/>
<stop offset="0.96" stop-color="#001827"/>
</linearGradient>
<linearGradient id="paint13_linear_1_4" x1="12.7025" y1="357.261" x2="35.1657" y2="426.665" gradientUnits="userSpaceOnUse">
<stop stop-color="#207E47"/>
<stop offset="0.96" stop-color="#001827"/>
</linearGradient>
<linearGradient id="paint14_linear_1_4" x1="192.703" y1="357.261" x2="215.166" y2="426.665" gradientUnits="userSpaceOnUse">
<stop stop-color="#207E47"/>
<stop offset="0.96" stop-color="#001827"/>
</linearGradient>
<linearGradient id="paint15_linear_1_4" x1="372.703" y1="357.261" x2="395.166" y2="426.665" gradientUnits="userSpaceOnUse">
<stop stop-color="#207E47"/>
<stop offset="0.96" stop-color="#001827"/>
</linearGradient>
<linearGradient id="paint16_linear_1_4" x1="552.703" y1="357.261" x2="575.166" y2="426.665" gradientUnits="userSpaceOnUse">
<stop stop-color="#207E47"/>
<stop offset="0.96" stop-color="#001827"/>
</linearGradient>
<linearGradient id="paint17_linear_1_4" x1="732.703" y1="357.261" x2="755.166" y2="426.665" gradientUnits="userSpaceOnUse">
<stop stop-color="#207E47"/>
<stop offset="0.96" stop-color="#001827"/>
</linearGradient>
<linearGradient id="paint18_linear_1_4" x1="732.703" y1="477.261" x2="755.166" y2="546.665" gradientUnits="userSpaceOnUse">
<stop stop-color="#207E47"/>
<stop offset="0.96" stop-color="#001827"/>
</linearGradient>
<linearGradient id="paint19_linear_1_4" x1="732.703" y1="597.261" x2="755.166" y2="666.665" gradientUnits="userSpaceOnUse">
<stop stop-color="#207E47"/>
<stop offset="0.96" stop-color="#001827"/>
</linearGradient>
<linearGradient id="paint20_linear_1_4" x1="72.7025" y1="-2.73888" x2="95.1657" y2="66.6654" gradientUnits="userSpaceOnUse">
<stop stop-color="#207E47"/>
<stop offset="0.96" stop-color="#001827"/>
</linearGradient>
<linearGradient id="paint21_linear_1_4" x1="72.7025" y1="57.2611" x2="95.1657" y2="126.665" gradientUnits="userSpaceOnUse">
<stop stop-color="#207E47"/>
<stop offset="0.96" stop-color="#001827"/>
</linearGradient>
<linearGradient id="paint22_linear_1_4" x1="72.7025" y1="117.261" x2="95.1657" y2="186.665" gradientUnits="userSpaceOnUse">
<stop stop-color="#207E47"/>
<stop offset="0.96" stop-color="#001827"/>
</linearGradient>
<linearGradient id="paint23_linear_1_4" x1="72.7025" y1="177.261" x2="95.1657" y2="246.665" gradientUnits="userSpaceOnUse">
<stop stop-color="#207E47"/>
<stop offset="0.96" stop-color="#001827"/>
</linearGradient>
<linearGradient id="paint24_linear_1_4" x1="72.7025" y1="237.261" x2="95.1657" y2="306.665" gradientUnits="userSpaceOnUse">
<stop stop-color="#207E47"/>
<stop offset="0.96" stop-color="#001827"/>
</linearGradient>
<linearGradient id="paint25_linear_1_4" x1="72.7025" y1="297.261" x2="95.1657" y2="366.665" gradientUnits="userSpaceOnUse">
<stop stop-color="#207E47"/>
<stop offset="0.96" stop-color="#001827"/>
</linearGradient>
<linearGradient id="paint26_linear_1_4" x1="252.703" y1="297.261" x2="275.166" y2="366.665" gradientUnits="userSpaceOnUse">
<stop stop-color="#207E47"/>
<stop offset="0.96" stop-color="#001827"/>
</linearGradient>
<linearGradient id="paint27_linear_1_4" x1="432.703" y1="297.261" x2="455.166" y2="366.665" gradientUnits="userSpaceOnUse">
<stop stop-color="#207E47"/>
<stop offset="0.96" stop-color="#001827"/>
</linearGradient>
<linearGradient id="paint28_linear_1_4" x1="612.703" y1="297.261" x2="635.166" y2="366.665" gradientUnits="userSpaceOnUse">
<stop stop-color="#207E47"/>
<stop offset="0.96" stop-color="#001827"/>
</linearGradient>
<linearGradient id="paint29_linear_1_4" x1="612.703" y1="417.261" x2="635.166" y2="486.665" gradientUnits="userSpaceOnUse">
<stop stop-color="#207E47"/>
<stop offset="0.96" stop-color="#001827"/>
</linearGradient>
<linearGradient id="paint30_linear_1_4" x1="612.703" y1="537.261" x2="635.166" y2="606.665" gradientUnits="userSpaceOnUse">
<stop stop-color="#207E47"/>
<stop offset="0.96" stop-color="#001827"/>
</linearGradient>
<linearGradient id="paint31_linear_1_4" x1="612.703" y1="657.261" x2="635.166" y2="726.665" gradientUnits="userSpaceOnUse">
<stop stop-color="#207E47"/>
<stop offset="0.96" stop-color="#001827"/>
</linearGradient>
<linearGradient id="paint32_linear_1_4" x1="792.703" y1="657.261" x2="815.166" y2="726.665" gradientUnits="userSpaceOnUse">
<stop stop-color="#207E47"/>
<stop offset="0.96" stop-color="#001827"/>
</linearGradient>
<linearGradient id="paint33_linear_1_4" x1="72.7025" y1="357.261" x2="95.1657" y2="426.665" gradientUnits="userSpaceOnUse">
<stop stop-color="#207E47"/>
<stop offset="0.96" stop-color="#001827"/>
</linearGradient>
<linearGradient id="paint34_linear_1_4" x1="252.703" y1="357.261" x2="275.166" y2="426.665" gradientUnits="userSpaceOnUse">
<stop stop-color="#207E47"/>
<stop offset="0.96" stop-color="#001827"/>
</linearGradient>
<linearGradient id="paint35_linear_1_4" x1="432.703" y1="357.261" x2="455.166" y2="426.665" gradientUnits="userSpaceOnUse">
<stop stop-color="#207E47"/>
<stop offset="0.96" stop-color="#001827"/>
</linearGradient>
<linearGradient id="paint36_linear_1_4" x1="612.703" y1="357.261" x2="635.166" y2="426.665" gradientUnits="userSpaceOnUse">
<stop stop-color="#207E47"/>
<stop offset="0.96" stop-color="#001827"/>
</linearGradient>
<linearGradient id="paint37_linear_1_4" x1="612.703" y1="477.261" x2="635.166" y2="546.665" gradientUnits="userSpaceOnUse">
<stop stop-color="#207E47"/>
<stop offset="0.96" stop-color="#001827"/>
</linearGradient>
<linearGradient id="paint38_linear_1_4" x1="612.703" y1="597.261" x2="635.166" y2="666.665" gradientUnits="userSpaceOnUse">
<stop stop-color="#207E47"/>
<stop offset="0.96" stop-color="#001827"/>
</linearGradient>
<linearGradient id="paint39_linear_1_4" x1="132.703" y1="-2.73888" x2="155.166" y2="66.6654" gradientUnits="userSpaceOnUse">
<stop stop-color="#207E47"/>
<stop offset="0.96" stop-color="#001827"/>
</linearGradient>
<linearGradient id="paint40_linear_1_4" x1="132.703" y1="57.2611" x2="155.166" y2="126.665" gradientUnits="userSpaceOnUse">
<stop stop-color="#207E47"/>
<stop offset="0.96" stop-color="#001827"/>
</linearGradient>
<linearGradient id="paint41_linear_1_4" x1="132.703" y1="117.261" x2="155.166" y2="186.665" gradientUnits="userSpaceOnUse">
<stop stop-color="#207E47"/>
<stop offset="0.96" stop-color="#001827"/>
</linearGradient>
<linearGradient id="paint42_linear_1_4" x1="132.703" y1="177.261" x2="155.166" y2="246.665" gradientUnits="userSpaceOnUse">
<stop stop-color="#207E47"/>
<stop offset="0.96" stop-color="#001827"/>
</linearGradient>
<linearGradient id="paint43_linear_1_4" x1="132.703" y1="237.261" x2="155.166" y2="306.665" gradientUnits="userSpaceOnUse">
<stop stop-color="#207E47"/>
<stop offset="0.96" stop-color="#001827"/>
</linearGradient>
<linearGradient id="paint44_linear_1_4" x1="132.703" y1="297.261" x2="155.166" y2="366.665" gradientUnits="userSpaceOnUse">
<stop stop-color="#207E47"/>
<stop offset="0.96" stop-color="#001827"/>
</linearGradient>
<linearGradient id="paint45_linear_1_4" x1="312.703" y1="297.261" x2="335.166" y2="366.665" gradientUnits="userSpaceOnUse">
<stop stop-color="#207E47"/>
<stop offset="0.96" stop-color="#001827"/>
</linearGradient>
<linearGradient id="paint46_linear_1_4" x1="492.703" y1="297.261" x2="515.166" y2="366.665" gradientUnits="userSpaceOnUse">
<stop stop-color="#207E47"/>
<stop offset="0.96" stop-color="#001827"/>
</linearGradient>
<linearGradient id="paint47_linear_1_4" x1="672.703" y1="297.261" x2="695.166" y2="366.665" gradientUnits="userSpaceOnUse">
<stop stop-color="#207E47"/>
<stop offset="0.96" stop-color="#001827"/>
</linearGradient>
<linearGradient id="paint48_linear_1_4" x1="672.703" y1="417.261" x2="695.166" y2="486.665" gradientUnits="userSpaceOnUse">
<stop stop-color="#207E47"/>
<stop offset="0.96" stop-color="#001827"/>
</linearGradient>
<linearGradient id="paint49_linear_1_4" x1="672.703" y1="537.261" x2="695.166" y2="606.665" gradientUnits="userSpaceOnUse">
<stop stop-color="#207E47"/>
<stop offset="0.96" stop-color="#001827"/>
</linearGradient>
<linearGradient id="paint50_linear_1_4" x1="672.703" y1="657.261" x2="695.166" y2="726.665" gradientUnits="userSpaceOnUse">
<stop stop-color="#207E47"/>
<stop offset="0.96" stop-color="#001827"/>
</linearGradient>
<linearGradient id="paint51_linear_1_4" x1="852.703" y1="657.261" x2="875.166" y2="726.665" gradientUnits="userSpaceOnUse">
<stop stop-color="#207E47"/>
<stop offset="0.96" stop-color="#001827"/>
</linearGradient>
<linearGradient id="paint52_linear_1_4" x1="132.703" y1="357.261" x2="155.166" y2="426.665" gradientUnits="userSpaceOnUse">
<stop stop-color="#207E47"/>
<stop offset="0.96" stop-color="#001827"/>
</linearGradient>
<linearGradient id="paint53_linear_1_4" x1="312.703" y1="357.261" x2="335.166" y2="426.665" gradientUnits="userSpaceOnUse">
<stop stop-color="#207E47"/>
<stop offset="0.96" stop-color="#001827"/>
</linearGradient>
<linearGradient id="paint54_linear_1_4" x1="492.703" y1="357.261" x2="515.166" y2="426.665" gradientUnits="userSpaceOnUse">
<stop stop-color="#207E47"/>
<stop offset="0.96" stop-color="#001827"/>
</linearGradient>
<linearGradient id="paint55_linear_1_4" x1="672.703" y1="357.261" x2="695.166" y2="426.665" gradientUnits="userSpaceOnUse">
<stop stop-color="#207E47"/>
<stop offset="0.96" stop-color="#001827"/>
</linearGradient>
<linearGradient id="paint56_linear_1_4" x1="672.703" y1="477.261" x2="695.166" y2="546.665" gradientUnits="userSpaceOnUse">
<stop stop-color="#207E47"/>
<stop offset="0.96" stop-color="#001827"/>
</linearGradient>
<linearGradient id="paint57_linear_1_4" x1="672.703" y1="597.261" x2="695.166" y2="666.665" gradientUnits="userSpaceOnUse">
<stop stop-color="#207E47"/>
<stop offset="0.96" stop-color="#001827"/>
</linearGradient>
</defs>
</svg>
