<svg width="27" height="14" viewBox="0 0 27 14" fill="none" xmlns="http://www.w3.org/2000/svg">
<path d="M24.75 0H10.125C8.8875 0 7.875 0.969231 7.875 2.15385V11.8462C7.875 13.0415 8.8875 14 10.125 14H24.75C25.9988 14 27 13.0415 27 11.8462V2.15385C27 0.969231 25.9988 0 24.75 0ZM24.75 11.8462H10.125V3.95231L17.4375 7.53846L24.75 3.95231V11.8462ZM17.4375 5.71846L10.125 2.15385H24.75L17.4375 5.71846ZM5.625 11.8462C5.625 12.0292 5.65875 12.2015 5.68125 12.3846H1.125C0.504 12.3846 0 11.9 0 11.3077C0 10.7154 0.504 10.2308 1.125 10.2308H5.625V11.8462ZM3.375 1.61538H5.68125C5.65875 1.79846 5.625 1.97077 5.625 2.15385V3.76923H3.375C2.75625 3.76923 2.25 3.28462 2.25 2.69231C2.25 2.1 2.75625 1.61538 3.375 1.61538ZM1.125 7C1.125 6.40769 1.63125 5.92308 2.25 5.92308H5.625V8.07692H2.25C1.63125 8.07692 1.125 7.59231 1.125 7Z" fill="#55B189"/>
</svg>
