<svg width="122" height="30" viewBox="0 0 122 30" fill="none" xmlns="http://www.w3.org/2000/svg">
<path d="M8.1625 8.22266C8.33437 8.22266 8.4789 8.28125 8.59609 8.39844C8.71328 8.51562 8.77187 8.66016 8.77187 8.83203V28.6133C8.77187 28.7852 8.71328 28.9297 8.59609 29.0469C8.4789 29.1719 8.33437 29.2344 8.1625 29.2344H7.70547C7.69765 29.2344 7.68594 29.2305 7.67031 29.2227C7.65469 29.2148 7.64297 29.2109 7.63515 29.2109C7.62734 29.2109 7.61172 29.2148 7.58828 29.2227C7.57265 29.2305 7.56094 29.2344 7.55312 29.2344H7.09609C6.92422 29.2344 6.77969 29.1719 6.6625 29.0469C6.54531 28.9297 6.48672 28.7852 6.48672 28.6133V8.83203C6.48672 8.66016 6.54531 8.51562 6.6625 8.39844C6.77969 8.28125 6.92422 8.22266 7.09609 8.22266H7.55312C7.56094 8.22266 7.57265 8.22656 7.58828 8.23438C7.61172 8.23438 7.62734 8.23438 7.63515 8.23438C7.64297 8.23438 7.65469 8.23438 7.67031 8.23438C7.68594 8.22656 7.69765 8.22266 7.70547 8.22266H8.1625ZM14.4789 0.265625C14.6508 0.265625 14.7953 0.328125 14.9125 0.453125C15.0375 0.570312 15.1 0.714844 15.1 0.886719V1.33203C15.1 1.50391 15.0375 1.65234 14.9125 1.77734C14.7953 1.89453 14.6508 1.95312 14.4789 1.95312H8.77187V5.71484C8.77187 5.88672 8.71328 6.03125 8.59609 6.14844C8.4789 6.26562 8.33437 6.32422 8.1625 6.32422H7.70547C7.69765 6.32422 7.68594 6.32422 7.67031 6.32422C7.65469 6.31641 7.64297 6.3125 7.63515 6.3125C7.62734 6.3125 7.61172 6.31641 7.58828 6.32422C7.57265 6.32422 7.56094 6.32422 7.55312 6.32422H7.09609C6.92422 6.32422 6.77969 6.26562 6.6625 6.14844C6.54531 6.03125 6.48672 5.88672 6.48672 5.71484V1.95312H0.779686C0.607811 1.95312 0.46328 1.89453 0.346092 1.77734C0.228905 1.65234 0.170311 1.50391 0.170311 1.33203V0.886719C0.170311 0.714844 0.228905 0.570312 0.346092 0.453125C0.46328 0.328125 0.607811 0.265625 0.779686 0.265625H14.4789ZM20.6992 0.265625C20.8711 0.265625 21.0156 0.324219 21.1328 0.441406C21.25 0.558594 21.3086 0.703125 21.3086 0.875V28.6133C21.3086 28.7852 21.25 28.9297 21.1328 29.0469C21.0156 29.1641 20.8711 29.2227 20.6992 29.2227H20.2422C20.2344 29.2227 20.2187 29.2188 20.1953 29.2109C20.1797 29.2109 20.168 29.2109 20.1602 29.2109C20.1523 29.2109 20.1406 29.2109 20.125 29.2109C20.1094 29.2188 20.0977 29.2227 20.0898 29.2227H19.6328C19.4609 29.2227 19.3125 29.1641 19.1875 29.0469C19.0703 28.9297 19.0117 28.7852 19.0117 28.6133V0.875C19.0117 0.703125 19.0703 0.558594 19.1875 0.441406C19.3125 0.324219 19.4609 0.265625 19.6328 0.265625H20.0898C20.0977 0.265625 20.1094 0.269531 20.125 0.277344C20.1406 0.277344 20.1523 0.277344 20.1602 0.277344C20.168 0.277344 20.1797 0.277344 20.1953 0.277344C20.2187 0.269531 20.2344 0.265625 20.2422 0.265625H20.6992ZM39.5523 0.265625C39.7242 0.265625 39.8687 0.324219 39.9859 0.441406C40.1109 0.558594 40.1734 0.703125 40.1734 0.875V28.625C40.1734 28.7969 40.1109 28.9414 39.9859 29.0586C39.8687 29.1758 39.7242 29.2344 39.5523 29.2344H39.107C39.0992 29.2344 39.0836 29.2305 39.0602 29.2227C39.0445 29.2227 39.0328 29.2227 39.025 29.2227C39.0172 29.2227 39.0016 29.2227 38.9781 29.2227C38.9625 29.2305 38.9508 29.2344 38.943 29.2344H38.4977C38.3258 29.2344 38.1773 29.1758 38.0523 29.0586C37.9352 28.9414 37.8766 28.7969 37.8766 28.625V9.44141L35.0523 19.7773C35.0055 19.9414 34.9078 20.0664 34.7594 20.1523C34.6187 20.2383 34.4664 20.2578 34.3023 20.2109L34.1266 20.1641C33.9859 20.2422 33.8414 20.2578 33.693 20.2109L33.2594 20.0938C33.0953 20.0469 32.9703 19.9492 32.8844 19.8008C32.7984 19.6523 32.7789 19.4961 32.8258 19.332L37.9 0.757812C37.9234 0.585938 38.025 0.449219 38.2047 0.347656C38.2516 0.324219 38.3062 0.304688 38.3687 0.289062C38.3844 0.28125 38.4117 0.277344 38.4508 0.277344L38.943 0.265625C38.9508 0.265625 38.9625 0.269531 38.9781 0.277344C38.9937 0.277344 39.0055 0.277344 39.0133 0.277344H39.0602L39.5523 0.265625ZM27.5289 0.851562L33.7984 23.8203C33.8453 23.9844 33.8258 24.1406 33.7398 24.2891C33.6617 24.4297 33.5406 24.5234 33.3766 24.5703L32.9312 24.6992C32.7828 24.7461 32.6383 24.7305 32.4977 24.6523L32.3219 24.6992C32.1578 24.7461 32.0016 24.7266 31.8531 24.6406C31.7125 24.5547 31.6187 24.4297 31.5719 24.2656L27.5289 9.46484V28.625C27.5289 28.7969 27.4703 28.9414 27.3531 29.0586C27.2359 29.1758 27.0914 29.2344 26.9195 29.2344H26.4625C26.4547 29.2344 26.4391 29.2305 26.4156 29.2227C26.4 29.2227 26.3883 29.2227 26.3805 29.2227C26.3727 29.2227 26.3609 29.2227 26.3453 29.2227C26.3297 29.2305 26.318 29.2344 26.3102 29.2344H25.8531C25.6812 29.2344 25.5367 29.1758 25.4195 29.0586C25.3023 28.9414 25.2437 28.7969 25.2437 28.625V0.875C25.2437 0.703125 25.3023 0.558594 25.4195 0.441406C25.5367 0.324219 25.6812 0.265625 25.8531 0.265625L26.3805 0.277344H26.3922C26.4 0.277344 26.4117 0.277344 26.4273 0.277344C26.443 0.269531 26.4547 0.265625 26.4625 0.265625L26.9898 0.277344H27.0133C27.1617 0.300781 27.2828 0.367187 27.3766 0.476562C27.4703 0.585938 27.5211 0.710938 27.5289 0.851562ZM48.2805 14.3281H56.0969C56.2687 14.3281 56.4133 14.3867 56.5305 14.5039C56.6477 14.6211 56.7062 14.7656 56.7062 14.9375V15.3945C56.7062 15.5664 56.6477 15.7109 56.5305 15.8281C56.4133 15.9453 56.2687 16.0039 56.0969 16.0039H48.2805C48.1086 16.0039 47.9602 15.9453 47.8352 15.8281C47.718 15.7109 47.6594 15.5664 47.6594 15.3945V14.9375C47.6594 14.7656 47.718 14.6211 47.8352 14.5039C47.9602 14.3867 48.1086 14.3281 48.2805 14.3281ZM58.4055 1.95312H46.382V27.5586H58.4055C58.5773 27.5586 58.7219 27.6172 58.8391 27.7344C58.9641 27.8516 59.0266 27.9961 59.0266 28.168V28.625C59.0266 28.7969 58.9641 28.9414 58.8391 29.0586C58.7219 29.1758 58.5773 29.2344 58.4055 29.2344H57.7961H44.7062C44.5344 29.2344 44.3898 29.1719 44.2727 29.0469C44.1555 28.9297 44.0969 28.7852 44.0969 28.6133V0.886719C44.0969 0.714844 44.1555 0.570312 44.2727 0.453125C44.3898 0.328125 44.5344 0.265625 44.7062 0.265625H58.4055C58.5773 0.265625 58.7219 0.328125 58.8391 0.453125C58.9562 0.570312 59.0148 0.714844 59.0148 0.886719V1.33203C59.0148 1.50391 58.9562 1.65234 58.8391 1.77734C58.7219 1.89453 58.5773 1.95312 58.4055 1.95312ZM77.2586 27.5586C77.4305 27.5586 77.575 27.6172 77.6922 27.7344C77.8094 27.8516 77.868 27.9961 77.868 28.168V28.625C77.868 28.7969 77.8094 28.9414 77.6922 29.0586C77.575 29.1758 77.4305 29.2344 77.2586 29.2344H63.5594C63.3875 29.2344 63.243 29.1758 63.1258 29.0586C63.0086 28.9414 62.95 28.7969 62.95 28.625V3.24219C62.95 3.07031 63.0086 2.92578 63.1258 2.80859C63.243 2.69141 63.3875 2.63281 63.5594 2.63281H64.0164C64.0242 2.63281 64.0359 2.63672 64.0516 2.64453C64.0672 2.64453 64.0789 2.64453 64.0867 2.64453C64.0945 2.64453 64.1062 2.64453 64.1219 2.64453C64.1453 2.63672 64.1609 2.63281 64.1687 2.63281H64.6258C64.7977 2.63281 64.9422 2.69141 65.0594 2.80859C65.1766 2.92578 65.2352 3.07031 65.2352 3.24219V27.5586H77.2586ZM83.4789 0.265625C83.6508 0.265625 83.7953 0.324219 83.9125 0.441406C84.0297 0.558594 84.0883 0.703125 84.0883 0.875V28.6133C84.0883 28.7852 84.0297 28.9297 83.9125 29.0469C83.7953 29.1641 83.6508 29.2227 83.4789 29.2227H83.0219C83.0141 29.2227 82.9984 29.2188 82.975 29.2109C82.9594 29.2109 82.9477 29.2109 82.9398 29.2109C82.932 29.2109 82.9203 29.2109 82.9047 29.2109C82.8891 29.2188 82.8773 29.2227 82.8695 29.2227H82.4125C82.2406 29.2227 82.0922 29.1641 81.9672 29.0469C81.85 28.9297 81.7914 28.7852 81.7914 28.6133V0.875C81.7914 0.703125 81.85 0.558594 81.9672 0.441406C82.0922 0.324219 82.2406 0.265625 82.4125 0.265625H82.8695C82.8773 0.265625 82.8891 0.269531 82.9047 0.277344C82.9203 0.277344 82.932 0.277344 82.9398 0.277344C82.9477 0.277344 82.9594 0.277344 82.975 0.277344C82.9984 0.269531 83.0141 0.265625 83.0219 0.265625H83.4789ZM102.332 2.38672C102.504 2.38672 102.648 2.44922 102.766 2.57422C102.891 2.69141 102.953 2.83594 102.953 3.00781V28.625C102.953 28.7969 102.891 28.9414 102.766 29.0586C102.648 29.1758 102.504 29.2344 102.332 29.2344H101.816C101.809 29.2344 101.805 29.2344 101.805 29.2344L101.781 29.2227L101.758 29.2344C101.742 29.2344 101.73 29.2344 101.723 29.2344H101.207C101.074 29.25 100.949 29.2266 100.832 29.1641C100.715 29.1016 100.629 29.0078 100.574 28.8828L90.3086 6.24219V28.625C90.3086 28.7969 90.25 28.9414 90.1328 29.0586C90.0156 29.1758 89.8711 29.2344 89.6992 29.2344H89.2422C89.2344 29.2344 89.2188 29.2305 89.1953 29.2227C89.1797 29.2227 89.168 29.2227 89.1602 29.2227C89.1523 29.2227 89.1406 29.2227 89.125 29.2227C89.1094 29.2305 89.0977 29.2344 89.0898 29.2344H88.6328C88.4609 29.2344 88.3125 29.1758 88.1875 29.0586C88.0703 28.9414 88.0117 28.7969 88.0117 28.625V0.875C88.0117 0.703125 88.0703 0.558594 88.1875 0.441406C88.3125 0.324219 88.4609 0.265625 88.6328 0.265625H89.0898C89.0977 0.265625 89.1094 0.269531 89.125 0.277344C89.1406 0.277344 89.1523 0.277344 89.1602 0.277344C89.168 0.277344 89.1797 0.277344 89.1953 0.277344C89.2188 0.269531 89.2344 0.265625 89.2422 0.265625H89.6992C89.8555 0.265625 89.9922 0.320312 90.1094 0.429688C90.2344 0.539063 90.3008 0.671875 90.3086 0.828125L100.656 23.6445V3.00781C100.656 2.83594 100.715 2.69141 100.832 2.57422C100.957 2.44922 101.105 2.38672 101.277 2.38672H101.723C101.73 2.38672 101.742 2.39063 101.758 2.39844C101.781 2.40625 101.797 2.41016 101.805 2.41016C101.812 2.41016 101.824 2.40625 101.84 2.39844C101.863 2.39063 101.879 2.38672 101.887 2.38672H102.332ZM111.06 14.3281H118.877C119.048 14.3281 119.193 14.3867 119.31 14.5039C119.427 14.6211 119.486 14.7656 119.486 14.9375V15.3945C119.486 15.5664 119.427 15.7109 119.31 15.8281C119.193 15.9453 119.048 16.0039 118.877 16.0039H111.06C110.888 16.0039 110.74 15.9453 110.615 15.8281C110.498 15.7109 110.439 15.5664 110.439 15.3945V14.9375C110.439 14.7656 110.498 14.6211 110.615 14.5039C110.74 14.3867 110.888 14.3281 111.06 14.3281ZM121.185 1.95312H109.162V27.5586H121.185C121.357 27.5586 121.502 27.6172 121.619 27.7344C121.744 27.8516 121.806 27.9961 121.806 28.168V28.625C121.806 28.7969 121.744 28.9414 121.619 29.0586C121.502 29.1758 121.357 29.2344 121.185 29.2344H120.576H107.486C107.314 29.2344 107.17 29.1719 107.052 29.0469C106.935 28.9297 106.877 28.7852 106.877 28.6133V0.886719C106.877 0.714844 106.935 0.570312 107.052 0.453125C107.17 0.328125 107.314 0.265625 107.486 0.265625H121.185C121.357 0.265625 121.502 0.328125 121.619 0.453125C121.736 0.570312 121.795 0.714844 121.795 0.886719V1.33203C121.795 1.50391 121.736 1.65234 121.619 1.77734C121.502 1.89453 121.357 1.95312 121.185 1.95312Z" fill="#59D8DB"/>
</svg>
