<svg width="340" height="150" viewBox="0 0 340 150" fill="none" xmlns="http://www.w3.org/2000/svg">
<path d="M29.44 22.76L21.4 2.6L13.44 22.76L6.8 4H1.32L12.76 33.48L21.4 13.68L30.04 33.48L41.48 4H36L29.44 22.76ZM49.3381 32.4C51.4715 32.4 53.2981 31.9867 54.8181 31.16C56.3381 30.3333 57.5781 29.0933 58.5381 27.44L54.8181 25.92C54.2315 26.9067 53.4981 27.64 52.6181 28.12C51.7381 28.6 50.7115 28.84 49.5381 28.84C48.4181 28.84 47.4581 28.6 46.6581 28.12C45.8848 27.64 45.2981 26.9467 44.8981 26.04C44.4981 25.1067 44.2981 23.9733 44.2981 22.64C44.3248 21.3067 44.5381 20.1867 44.9381 19.28C45.3381 18.3733 45.9248 17.68 46.6981 17.2C47.4715 16.72 48.4048 16.48 49.4981 16.48C50.4048 16.48 51.1915 16.68 51.8581 17.08C52.5515 17.48 53.0848 18.04 53.4581 18.76C53.8581 19.48 54.0581 20.3333 54.0581 21.32C54.0581 21.5067 54.0048 21.7467 53.8981 22.04C53.8181 22.3067 53.7381 22.52 53.6581 22.68L54.9781 20.84H42.4981V23.8H58.6581C58.6848 23.6933 58.6981 23.52 58.6981 23.28C58.7248 23.04 58.7381 22.8133 58.7381 22.6C58.7381 20.6267 58.3648 18.9467 57.6181 17.56C56.8981 16.1467 55.8581 15.0667 54.4981 14.32C53.1381 13.5733 51.4848 13.2 49.5381 13.2C47.5915 13.2 45.8981 13.6 44.4581 14.4C43.0181 15.1733 41.8981 16.28 41.0981 17.72C40.3248 19.16 39.9381 20.8533 39.9381 22.8C39.9381 24.72 40.3248 26.4 41.0981 27.84C41.8715 29.28 42.9648 30.4 44.3781 31.2C45.8181 32 47.4715 32.4 49.3381 32.4ZM77.5738 26.28C77.5738 25.6933 77.7071 25.2 77.9737 24.8C78.2671 24.4 78.6938 24.0933 79.2538 23.88C79.8138 23.64 80.5471 23.52 81.4538 23.52C82.4938 23.52 83.4804 23.6533 84.4138 23.92C85.3471 24.1867 86.2271 24.6133 87.0538 25.2V23C86.8138 22.7067 86.4004 22.3867 85.8138 22.04C85.2271 21.6667 84.4804 21.3467 83.5738 21.08C82.6938 20.8133 81.6404 20.68 80.4138 20.68C78.1204 20.68 76.3471 21.2133 75.0938 22.28C73.8404 23.32 73.2138 24.7333 73.2138 26.52C73.2138 27.7733 73.5071 28.84 74.0938 29.72C74.6804 30.6 75.4671 31.2667 76.4538 31.72C77.4404 32.1733 78.5071 32.4 79.6538 32.4C80.7204 32.4 81.7604 32.2133 82.7738 31.84C83.8138 31.44 84.6671 30.8533 85.3338 30.08C86.0271 29.28 86.3738 28.2933 86.3738 27.12L85.7338 24.72C85.7338 25.6267 85.5071 26.4267 85.0538 27.12C84.6271 27.7867 84.0538 28.2933 83.3338 28.64C82.6404 28.9867 81.8671 29.16 81.0138 29.16C80.3471 29.16 79.7471 29.0533 79.2138 28.84C78.7071 28.6267 78.3071 28.3067 78.0138 27.88C77.7204 27.4267 77.5738 26.8933 77.5738 26.28ZM76.2138 18.4C76.4804 18.2133 76.8804 17.9867 77.4138 17.72C77.9738 17.4267 78.6271 17.1867 79.3738 17C80.1471 16.7867 80.9604 16.68 81.8138 16.68C82.3738 16.68 82.8938 16.7333 83.3738 16.84C83.8538 16.9467 84.2671 17.12 84.6138 17.36C84.9604 17.6 85.2271 17.9067 85.4138 18.28C85.6271 18.6533 85.7338 19.1333 85.7338 19.72V32H89.9738V18.88C89.9738 17.6533 89.6404 16.6267 88.9738 15.8C88.3071 14.9467 87.3871 14.2933 86.2138 13.84C85.0671 13.3867 83.7338 13.16 82.2138 13.16C80.5071 13.16 78.9871 13.4 77.6538 13.88C76.3471 14.36 75.2804 14.8533 74.4538 15.36L76.2138 18.4ZM99.29 13.6H95.01V32H99.29V13.6ZM104.77 18.2L106.85 14.56C106.45 14.0533 105.957 13.7067 105.37 13.52C104.783 13.3067 104.157 13.2 103.49 13.2C102.557 13.2 101.65 13.5333 100.77 14.2C99.9167 14.8667 99.21 15.7733 98.65 16.92C98.1167 18.04 97.85 19.3333 97.85 20.8L99.29 21.64C99.29 20.76 99.3833 20 99.57 19.36C99.7833 18.6933 100.117 18.1733 100.57 17.8C101.023 17.4267 101.61 17.24 102.33 17.24C102.863 17.24 103.303 17.32 103.65 17.48C103.997 17.64 104.37 17.88 104.77 18.2ZM117.229 32.4C119.362 32.4 121.189 31.9867 122.709 31.16C124.229 30.3333 125.469 29.0933 126.429 27.44L122.709 25.92C122.122 26.9067 121.389 27.64 120.509 28.12C119.629 28.6 118.602 28.84 117.429 28.84C116.309 28.84 115.349 28.6 114.549 28.12C113.775 27.64 113.189 26.9467 112.789 26.04C112.389 25.1067 112.189 23.9733 112.189 22.64C112.215 21.3067 112.429 20.1867 112.829 19.28C113.229 18.3733 113.815 17.68 114.589 17.2C115.362 16.72 116.295 16.48 117.389 16.48C118.295 16.48 119.082 16.68 119.749 17.08C120.442 17.48 120.975 18.04 121.349 18.76C121.749 19.48 121.949 20.3333 121.949 21.32C121.949 21.5067 121.895 21.7467 121.789 22.04C121.709 22.3067 121.629 22.52 121.549 22.68L122.869 20.84H110.389V23.8H126.549C126.575 23.6933 126.589 23.52 126.589 23.28C126.615 23.04 126.629 22.8133 126.629 22.6C126.629 20.6267 126.255 18.9467 125.509 17.56C124.789 16.1467 123.749 15.0667 122.389 14.32C121.029 13.5733 119.375 13.2 117.429 13.2C115.482 13.2 113.789 13.6 112.349 14.4C110.909 15.1733 109.789 16.28 108.989 17.72C108.215 19.16 107.829 20.8533 107.829 22.8C107.829 24.72 108.215 26.4 108.989 27.84C109.762 29.28 110.855 30.4 112.269 31.2C113.709 32 115.362 32.4 117.229 32.4ZM139.984 13.6L148.584 33.32L154.104 20.88L159.864 33.32L168.464 13.6H163.784L159.464 24.6L154.064 12.2L148.984 24.56L144.664 13.6H139.984ZM178.635 32.4C180.768 32.4 182.595 31.9867 184.115 31.16C185.635 30.3333 186.875 29.0933 187.835 27.44L184.115 25.92C183.528 26.9067 182.795 27.64 181.915 28.12C181.035 28.6 180.008 28.84 178.835 28.84C177.715 28.84 176.755 28.6 175.955 28.12C175.182 27.64 174.595 26.9467 174.195 26.04C173.795 25.1067 173.595 23.9733 173.595 22.64C173.622 21.3067 173.835 20.1867 174.235 19.28C174.635 18.3733 175.222 17.68 175.995 17.2C176.768 16.72 177.702 16.48 178.795 16.48C179.702 16.48 180.488 16.68 181.155 17.08C181.848 17.48 182.382 18.04 182.755 18.76C183.155 19.48 183.355 20.3333 183.355 21.32C183.355 21.5067 183.302 21.7467 183.195 22.04C183.115 22.3067 183.035 22.52 182.955 22.68L184.275 20.84H171.795V23.8H187.955C187.982 23.6933 187.995 23.52 187.995 23.28C188.022 23.04 188.035 22.8133 188.035 22.6C188.035 20.6267 187.662 18.9467 186.915 17.56C186.195 16.1467 185.155 15.0667 183.795 14.32C182.435 13.5733 180.782 13.2 178.835 13.2C176.888 13.2 175.195 13.6 173.755 14.4C172.315 15.1733 171.195 16.28 170.395 17.72C169.622 19.16 169.235 20.8533 169.235 22.8C169.235 24.72 169.622 26.4 170.395 27.84C171.168 29.28 172.262 30.4 173.675 31.2C175.115 32 176.768 32.4 178.635 32.4ZM192.158 0.799999V32H196.478V0.799999H192.158ZM204.882 22.8C204.882 21.6533 205.136 20.64 205.642 19.76C206.149 18.88 206.829 18.1867 207.682 17.68C208.562 17.1733 209.536 16.92 210.602 16.92C211.456 16.92 212.282 17.0533 213.082 17.32C213.882 17.5867 214.589 17.96 215.202 18.44C215.842 18.8933 216.309 19.4267 216.602 20.04V15.28C215.962 14.64 215.096 14.1333 214.002 13.76C212.909 13.3867 211.709 13.2 210.402 13.2C208.509 13.2 206.802 13.6133 205.282 14.44C203.789 15.24 202.602 16.36 201.722 17.8C200.869 19.24 200.442 20.9067 200.442 22.8C200.442 24.6667 200.869 26.3333 201.722 27.8C202.602 29.24 203.789 30.3733 205.282 31.2C206.802 32 208.509 32.4 210.402 32.4C211.709 32.4 212.909 32.2133 214.002 31.84C215.096 31.4667 215.962 30.96 216.602 30.32V25.56C216.309 26.1467 215.856 26.68 215.242 27.16C214.629 27.64 213.922 28.0133 213.122 28.28C212.322 28.5467 211.482 28.68 210.602 28.68C209.536 28.68 208.562 28.4267 207.682 27.92C206.829 27.4133 206.149 26.7333 205.642 25.88C205.136 25 204.882 23.9733 204.882 22.8ZM219.977 22.8C219.977 24.6667 220.404 26.3333 221.257 27.8C222.137 29.24 223.324 30.3733 224.817 31.2C226.311 32 228.004 32.4 229.897 32.4C231.791 32.4 233.471 32 234.937 31.2C236.431 30.3733 237.617 29.24 238.497 27.8C239.377 26.3333 239.817 24.6667 239.817 22.8C239.817 20.9067 239.377 19.24 238.497 17.8C237.617 16.36 236.431 15.24 234.937 14.44C233.471 13.6133 231.791 13.2 229.897 13.2C228.004 13.2 226.311 13.6133 224.817 14.44C223.324 15.24 222.137 16.36 221.257 17.8C220.404 19.24 219.977 20.9067 219.977 22.8ZM224.417 22.8C224.417 21.6533 224.657 20.64 225.137 19.76C225.617 18.88 226.271 18.2 227.097 17.72C227.924 17.24 228.857 17 229.897 17C230.911 17 231.831 17.24 232.657 17.72C233.511 18.2 234.177 18.88 234.657 19.76C235.137 20.64 235.377 21.6533 235.377 22.8C235.377 23.9467 235.137 24.96 234.657 25.84C234.177 26.6933 233.511 27.3733 232.657 27.88C231.831 28.36 230.911 28.6 229.897 28.6C228.857 28.6 227.924 28.36 227.097 27.88C226.271 27.3733 225.617 26.6933 225.137 25.84C224.657 24.96 224.417 23.9467 224.417 22.8ZM270.236 20.32C270.236 18.8 270.023 17.5067 269.596 16.44C269.17 15.3733 268.516 14.5733 267.636 14.04C266.783 13.48 265.703 13.2 264.396 13.2C263.143 13.2 262.023 13.48 261.036 14.04C260.076 14.6 259.276 15.4133 258.636 16.48C258.236 15.4133 257.583 14.6 256.676 14.04C255.796 13.48 254.676 13.2 253.316 13.2C252.143 13.2 251.116 13.4667 250.236 14C249.383 14.5067 248.69 15.2667 248.156 16.28V13.6H243.916V32H248.156V20.8C248.156 19.92 248.303 19.1733 248.596 18.56C248.89 17.9467 249.303 17.48 249.836 17.16C250.396 16.84 251.05 16.68 251.796 16.68C252.863 16.68 253.636 17.0267 254.116 17.72C254.623 18.3867 254.876 19.4133 254.876 20.8V32H259.196V20.8C259.196 19.92 259.343 19.1733 259.636 18.56C259.956 17.9467 260.383 17.48 260.916 17.16C261.476 16.84 262.116 16.68 262.836 16.68C263.903 16.68 264.676 17.0267 265.156 17.72C265.663 18.3867 265.916 19.4133 265.916 20.8V32H270.236V20.32ZM275.592 6.28C275.592 7 275.859 7.62666 276.392 8.16C276.952 8.66667 277.592 8.92 278.312 8.92C279.086 8.92 279.726 8.66667 280.232 8.16C280.766 7.62666 281.032 7 281.032 6.28C281.032 5.53333 280.766 4.90667 280.232 4.4C279.726 3.89333 279.086 3.64 278.312 3.64C277.592 3.64 276.952 3.89333 276.392 4.4C275.859 4.90667 275.592 5.53333 275.592 6.28ZM276.192 13.6V32H280.432V13.6H276.192ZM298.217 20.8V32H302.657V20.32C302.657 18.1067 302.111 16.3733 301.017 15.12C299.924 13.84 298.337 13.2 296.257 13.2C294.977 13.2 293.871 13.4667 292.937 14C292.031 14.5333 291.284 15.3467 290.697 16.44V13.6H286.377V32H290.697V20.8C290.697 19.9733 290.871 19.2533 291.217 18.64C291.564 18 292.044 17.52 292.657 17.2C293.271 16.8533 293.977 16.68 294.777 16.68C295.951 16.68 296.817 17.0267 297.377 17.72C297.937 18.4133 298.217 19.44 298.217 20.8ZM307.134 33.24C307.187 34.84 307.587 36.2533 308.334 37.48C309.107 38.7067 310.201 39.6533 311.614 40.32C313.027 41.0133 314.734 41.36 316.734 41.36C318.414 41.36 319.974 41 321.414 40.28C322.854 39.5867 324.014 38.52 324.894 37.08C325.801 35.64 326.254 33.8133 326.254 31.6V13.6H322.014V31.6C322.014 32.9867 321.747 34.12 321.214 35C320.707 35.88 320.041 36.5333 319.214 36.96C318.387 37.3867 317.521 37.6 316.614 37.6C315.601 37.6 314.707 37.4133 313.934 37.04C313.161 36.6667 312.547 36.1467 312.094 35.48C311.667 34.8133 311.441 34.0667 311.414 33.24H307.134ZM306.774 22.72C306.774 24.72 307.187 26.4267 308.014 27.84C308.841 29.2533 309.934 30.3333 311.294 31.08C312.681 31.8267 314.161 32.2 315.734 32.2C317.281 32.2 318.627 31.8267 319.774 31.08C320.947 30.3067 321.867 29.2133 322.534 27.8C323.227 26.3867 323.574 24.6933 323.574 22.72C323.574 20.72 323.227 19.0133 322.534 17.6C321.867 16.1867 320.947 15.1067 319.774 14.36C318.627 13.5867 317.281 13.2 315.734 13.2C314.161 13.2 312.681 13.5733 311.294 14.32C309.934 15.0667 308.841 16.1467 308.014 17.56C307.187 18.9467 306.774 20.6667 306.774 22.72ZM311.254 22.72C311.254 21.4667 311.507 20.4133 312.014 19.56C312.521 18.7067 313.187 18.0667 314.014 17.64C314.867 17.1867 315.787 16.96 316.774 16.96C317.387 16.96 318.001 17.08 318.614 17.32C319.254 17.56 319.827 17.9333 320.334 18.44C320.841 18.92 321.241 19.52 321.534 20.24C321.854 20.9333 322.014 21.76 322.014 22.72C322.014 23.9467 321.747 25 321.214 25.88C320.707 26.7333 320.041 27.3733 319.214 27.8C318.414 28.2267 317.601 28.44 316.774 28.44C315.787 28.44 314.867 28.2267 314.014 27.8C313.187 27.3467 312.521 26.6933 312.014 25.84C311.507 24.9867 311.254 23.9467 311.254 22.72ZM20.04 71.6H15.4L9.64 86.04L11.68 86.16L5.8 71.6H0.84L8.24 87.84L3.44 98.8H8.04L20.04 71.6ZM20.6413 80.8C20.6413 82.6667 21.0679 84.3333 21.9212 85.8C22.8013 87.24 23.9879 88.3733 25.4813 89.2C26.9746 90 28.6679 90.4 30.5613 90.4C32.4546 90.4 34.1346 90 35.6013 89.2C37.0946 88.3733 38.2813 87.24 39.1613 85.8C40.0413 84.3333 40.4813 82.6667 40.4813 80.8C40.4813 78.9067 40.0413 77.24 39.1613 75.8C38.2813 74.36 37.0946 73.24 35.6013 72.44C34.1346 71.6133 32.4546 71.2 30.5613 71.2C28.6679 71.2 26.9746 71.6133 25.4813 72.44C23.9879 73.24 22.8013 74.36 21.9212 75.8C21.0679 77.24 20.6413 78.9067 20.6413 80.8ZM25.0813 80.8C25.0813 79.6533 25.3213 78.64 25.8013 77.76C26.2813 76.88 26.9346 76.2 27.7613 75.72C28.5879 75.24 29.5213 75 30.5613 75C31.5746 75 32.4946 75.24 33.3213 75.72C34.1746 76.2 34.8413 76.88 35.3213 77.76C35.8013 78.64 36.0413 79.6533 36.0413 80.8C36.0413 81.9467 35.8013 82.96 35.3213 83.84C34.8413 84.6933 34.1746 85.3733 33.3213 85.88C32.4946 86.36 31.5746 86.6 30.5613 86.6C29.5213 86.6 28.5879 86.36 27.7613 85.88C26.9346 85.3733 26.2813 84.6933 25.8013 83.84C25.3213 82.96 25.0813 81.9467 25.0813 80.8ZM49.0203 82.8V71.6H44.5803V83.28C44.5803 85.4667 45.127 87.2 46.2203 88.48C47.3403 89.76 48.927 90.4 50.9803 90.4C52.2603 90.4 53.3536 90.1333 54.2603 89.6C55.1936 89.04 55.9536 88.2267 56.5403 87.16V90H60.8603V71.6H56.5403V82.8C56.5403 83.6267 56.367 84.36 56.0203 85C55.6736 85.6133 55.1936 86.0933 54.5803 86.44C53.967 86.76 53.247 86.92 52.4203 86.92C51.2736 86.92 50.4203 86.56 49.8603 85.84C49.3003 85.12 49.0203 84.1067 49.0203 82.8ZM78.2094 64.28C78.2094 65 78.476 65.6267 79.0094 66.16C79.5694 66.6667 80.2094 66.92 80.9294 66.92C81.7027 66.92 82.3427 66.6667 82.8494 66.16C83.3827 65.6267 83.6494 65 83.6494 64.28C83.6494 63.5333 83.3827 62.9067 82.8494 62.4C82.3427 61.8933 81.7027 61.64 80.9294 61.64C80.2094 61.64 79.5694 61.8933 79.0094 62.4C78.476 62.9067 78.2094 63.5333 78.2094 64.28ZM78.8094 71.6V90H83.0494V71.6H78.8094ZM100.834 78.8V90H105.274V78.32C105.274 76.1067 104.728 74.3733 103.634 73.12C102.541 71.84 100.954 71.2 98.8744 71.2C97.5944 71.2 96.4877 71.4667 95.5544 72C94.6477 72.5333 93.901 73.3467 93.3144 74.44V71.6H88.9944V90H93.3144V78.8C93.3144 77.9733 93.4877 77.2533 93.8344 76.64C94.181 76 94.661 75.52 95.2744 75.2C95.8877 74.8533 96.5944 74.68 97.3944 74.68C98.5677 74.68 99.4344 75.0267 99.9944 75.72C100.554 76.4133 100.834 77.44 100.834 78.8ZM120.223 71.6V75.4H130.663V71.6H120.223ZM123.303 65.2V90H127.583V65.2H123.303ZM137.963 58.8H133.643V90H137.963V58.8ZM145.483 78.8V90H149.843V78.2C149.843 76.6267 149.603 75.32 149.123 74.28C148.643 73.2133 147.923 72.4133 146.963 71.88C146.029 71.3467 144.883 71.08 143.523 71.08C142.136 71.08 140.949 71.4267 139.963 72.12C139.003 72.8133 138.256 73.7333 137.723 74.88C137.189 76.0267 136.923 77.3333 136.923 78.8H137.963C137.963 77.9733 138.136 77.2533 138.483 76.64C138.829 76.0267 139.309 75.5467 139.923 75.2C140.536 74.8533 141.243 74.68 142.043 74.68C143.243 74.68 144.109 75.0267 144.643 75.72C145.203 76.4133 145.483 77.44 145.483 78.8ZM163.323 90.4C165.456 90.4 167.283 89.9867 168.803 89.16C170.323 88.3333 171.563 87.0933 172.523 85.44L168.803 83.92C168.216 84.9067 167.483 85.64 166.603 86.12C165.723 86.6 164.696 86.84 163.523 86.84C162.403 86.84 161.443 86.6 160.643 86.12C159.869 85.64 159.283 84.9467 158.883 84.04C158.483 83.1067 158.283 81.9733 158.283 80.64C158.309 79.3067 158.523 78.1867 158.923 77.28C159.323 76.3733 159.909 75.68 160.683 75.2C161.456 74.72 162.389 74.48 163.483 74.48C164.389 74.48 165.176 74.68 165.843 75.08C166.536 75.48 167.069 76.04 167.443 76.76C167.843 77.48 168.043 78.3333 168.043 79.32C168.043 79.5067 167.989 79.7467 167.883 80.04C167.803 80.3067 167.723 80.52 167.643 80.68L168.963 78.84H156.483V81.8H172.643C172.669 81.6933 172.683 81.52 172.683 81.28C172.709 81.04 172.723 80.8133 172.723 80.6C172.723 78.6267 172.349 76.9467 171.603 75.56C170.883 74.1467 169.843 73.0667 168.483 72.32C167.123 71.5733 165.469 71.2 163.523 71.2C161.576 71.2 159.883 71.6 158.442 72.4C157.003 73.1733 155.883 74.28 155.083 75.72C154.309 77.16 153.923 78.8533 153.923 80.8C153.923 82.72 154.309 84.4 155.083 85.84C155.856 87.28 156.949 88.4 158.363 89.2C159.803 90 161.456 90.4 163.323 90.4ZM1 129.6L9.6 149.32L15.12 136.88L20.88 149.32L29.48 129.6H24.8L20.48 140.6L15.08 128.2L10 140.56L5.68 129.6H1ZM59.0556 129.6H54.7756V148H59.0556V129.6ZM64.5356 134.2L66.6156 130.56C66.2156 130.053 65.7223 129.707 65.1356 129.52C64.549 129.307 63.9223 129.2 63.2556 129.2C62.3223 129.2 61.4156 129.533 60.5356 130.2C59.6823 130.867 58.9756 131.773 58.4156 132.92C57.8823 134.04 57.6156 135.333 57.6156 136.8L59.0556 137.64C59.0556 136.76 59.149 136 59.3356 135.36C59.549 134.693 59.8823 134.173 60.3356 133.8C60.789 133.427 61.3756 133.24 62.0956 133.24C62.629 133.24 63.069 133.32 63.4156 133.48C63.7623 133.64 64.1356 133.88 64.5356 134.2ZM69.5803 116.8V148H73.9003V116.8H69.5803ZM93.2641 116.8V148H97.6241V116.8H93.2641ZM78.0241 138.8C78.0241 140.8 78.4374 142.52 79.2641 143.96C80.0907 145.4 81.1841 146.507 82.5441 147.28C83.9307 148.027 85.4107 148.4 86.9841 148.4C88.5307 148.4 89.8774 148.013 91.0241 147.24C92.1974 146.467 93.1174 145.36 93.7841 143.92C94.4774 142.48 94.8241 140.773 94.8241 138.8C94.8241 136.8 94.4774 135.093 93.7841 133.68C93.1174 132.24 92.1974 131.133 91.0241 130.36C89.8774 129.587 88.5307 129.2 86.9841 129.2C85.4107 129.2 83.9307 129.587 82.5441 130.36C81.1841 131.107 80.0907 132.2 79.2641 133.64C78.4374 135.053 78.0241 136.773 78.0241 138.8ZM82.5041 138.8C82.5041 137.573 82.7574 136.52 83.2641 135.64C83.7707 134.76 84.4374 134.093 85.2641 133.64C86.1174 133.187 87.0374 132.96 88.0241 132.96C88.8507 132.96 89.6641 133.187 90.4641 133.64C91.2907 134.093 91.9574 134.76 92.4641 135.64C92.9974 136.493 93.2641 137.547 93.2641 138.8C93.2641 140.053 92.9974 141.12 92.4641 142C91.9574 142.853 91.2907 143.507 90.4641 143.96C89.6641 144.413 88.8507 144.64 88.0241 144.64C87.0374 144.64 86.1174 144.413 85.2641 143.96C84.4374 143.507 83.7707 142.84 83.2641 141.96C82.7574 141.08 82.5041 140.027 82.5041 138.8ZM113.571 138.8C113.571 140.667 113.998 142.333 114.851 143.8C115.731 145.24 116.918 146.373 118.411 147.2C119.904 148 121.598 148.4 123.491 148.4C125.384 148.4 127.064 148 128.531 147.2C130.024 146.373 131.211 145.24 132.091 143.8C132.971 142.333 133.411 140.667 133.411 138.8C133.411 136.907 132.971 135.24 132.091 133.8C131.211 132.36 130.024 131.24 128.531 130.44C127.064 129.613 125.384 129.2 123.491 129.2C121.598 129.2 119.904 129.613 118.411 130.44C116.918 131.24 115.731 132.36 114.851 133.8C113.998 135.24 113.571 136.907 113.571 138.8ZM118.011 138.8C118.011 137.653 118.251 136.64 118.731 135.76C119.211 134.88 119.864 134.2 120.691 133.72C121.518 133.24 122.451 133 123.491 133C124.504 133 125.424 133.24 126.251 133.72C127.104 134.2 127.771 134.88 128.251 135.76C128.731 136.64 128.971 137.653 128.971 138.8C128.971 139.947 128.731 140.96 128.251 141.84C127.771 142.693 127.104 143.373 126.251 143.88C125.424 144.36 124.504 144.6 123.491 144.6C122.451 144.6 121.518 144.36 120.691 143.88C119.864 143.373 119.211 142.693 118.731 141.84C118.251 140.96 118.011 139.947 118.011 138.8ZM135.99 129.6V133.4H146.55V129.6H135.99ZM146.07 121.44L148.11 118.08C147.897 117.813 147.59 117.547 147.19 117.28C146.817 117.013 146.363 116.787 145.83 116.6C145.297 116.413 144.67 116.32 143.95 116.32C142.67 116.32 141.59 116.573 140.71 117.08C139.83 117.56 139.15 118.28 138.67 119.24C138.217 120.173 137.99 121.36 137.99 122.8V148H142.23V123.64C142.23 122.867 142.31 122.24 142.47 121.76C142.63 121.28 142.843 120.933 143.11 120.72C143.403 120.507 143.75 120.4 144.15 120.4C144.497 120.4 144.83 120.467 145.15 120.6C145.497 120.733 145.803 121.013 146.07 121.44Z" fill="#D7D7D7"/>
<path d="M30.8366 138.8C30.8366 140.667 31.2632 142.333 32.1166 143.8C32.9966 145.24 34.1832 146.373 35.6766 147.2C37.1699 148 38.8632 148.4 40.7566 148.4C42.6499 148.4 44.3299 148 45.7966 147.2C47.2899 146.373 48.4766 145.24 49.3566 143.8C50.2366 142.333 50.6766 140.667 50.6766 138.8C50.6766 136.907 50.2366 135.24 49.3566 133.8C48.4766 132.36 47.2899 131.24 45.7966 130.44C44.3299 129.613 42.6499 129.2 40.7566 129.2C38.8632 129.2 37.1699 129.613 35.6766 130.44C34.1832 131.24 32.9966 132.36 32.1166 133.8C31.2632 135.24 30.8366 136.907 30.8366 138.8ZM35.2766 138.8C35.2766 137.653 35.5166 136.64 35.9966 135.76C36.4766 134.88 37.1299 134.2 37.9566 133.72C38.7832 133.24 39.7166 133 40.7566 133C41.7699 133 42.6899 133.24 43.5166 133.72C44.3699 134.2 45.0366 134.88 45.5166 135.76C45.9966 136.64 46.2366 137.653 46.2366 138.8C46.2366 139.947 45.9966 140.96 45.5166 141.84C45.0366 142.693 44.3699 143.373 43.5166 143.88C42.6899 144.36 41.7699 144.6 40.7566 144.6C39.7166 144.6 38.7832 144.36 37.9566 143.88C37.1299 143.373 36.4766 142.693 35.9966 141.84C35.5166 140.96 35.2766 139.947 35.2766 138.8Z" fill="#2E817F"/>
<path d="M166.726 134C166.726 132.133 167.139 130.52 167.966 129.16C168.819 127.8 169.926 126.76 171.286 126.04C172.646 125.293 174.126 124.92 175.726 124.92C177.059 124.92 178.246 125.093 179.286 125.44C180.326 125.787 181.259 126.253 182.086 126.84C182.939 127.427 183.673 128.067 184.286 128.76V122.32C183.139 121.413 181.886 120.707 180.526 120.2C179.193 119.693 177.499 119.44 175.446 119.44C173.313 119.44 171.326 119.787 169.486 120.48C167.673 121.173 166.086 122.173 164.726 123.48C163.393 124.787 162.353 126.333 161.606 128.12C160.886 129.88 160.526 131.84 160.526 134C160.526 136.16 160.886 138.133 161.606 139.92C162.353 141.68 163.393 143.213 164.726 144.52C166.086 145.827 167.673 146.827 169.486 147.52C171.326 148.213 173.313 148.56 175.446 148.56C177.499 148.56 179.193 148.307 180.526 147.8C181.886 147.293 183.139 146.587 184.286 145.68V139.24C183.673 139.933 182.939 140.573 182.086 141.16C181.259 141.747 180.326 142.213 179.286 142.56C178.246 142.907 177.059 143.08 175.726 143.08C174.126 143.08 172.646 142.72 171.286 142C169.926 141.253 168.819 140.2 167.966 138.84C167.139 137.453 166.726 135.84 166.726 134ZM193.658 148H207.778V143.16H193.658V148ZM193.658 124.84H207.778V120H193.658V124.84ZM193.658 135.52H206.978V130.76H193.658V135.52ZM189.978 120V148H195.498V120H189.978ZM219.775 134.96L228.175 148H234.935L225.815 134.96H219.775ZM213.415 120V148H219.135V120H213.415ZM216.895 124.88H222.455C223.468 124.88 224.335 125.053 225.055 125.4C225.802 125.72 226.375 126.2 226.775 126.84C227.175 127.453 227.375 128.2 227.375 129.08C227.375 129.96 227.175 130.72 226.775 131.36C226.375 131.973 225.802 132.453 225.055 132.8C224.335 133.12 223.468 133.28 222.455 133.28H216.895V137.84H222.815C225.028 137.84 226.908 137.467 228.455 136.72C230.002 135.973 231.188 134.933 232.015 133.6C232.842 132.24 233.255 130.68 233.255 128.92C233.255 127.133 232.842 125.573 232.015 124.24C231.188 122.907 230.002 121.867 228.455 121.12C226.908 120.373 225.028 120 222.815 120H216.895V124.88ZM241.9 148H256.02V143.16H241.9V148ZM241.9 124.84H256.02V120H241.9V124.84ZM241.9 135.52H255.22V130.76H241.9V135.52ZM238.22 120V148H243.74V120H238.22ZM265.937 133.8H270.977C272.844 133.8 274.484 133.547 275.897 133.04C277.311 132.507 278.417 131.733 279.217 130.72C280.017 129.707 280.417 128.493 280.417 127.08C280.417 125.48 280.017 124.16 279.217 123.12C278.417 122.08 277.311 121.307 275.897 120.8C274.484 120.267 272.844 120 270.977 120H261.657V148H271.577C273.657 148 275.484 147.72 277.057 147.16C278.631 146.6 279.844 145.733 280.697 144.56C281.577 143.387 282.017 141.88 282.017 140.04C282.017 138.653 281.724 137.467 281.137 136.48C280.577 135.493 279.804 134.693 278.817 134.08C277.831 133.44 276.711 132.973 275.457 132.68C274.231 132.387 272.937 132.24 271.577 132.24H265.937V135.36H271.057C271.777 135.36 272.444 135.44 273.057 135.6C273.671 135.733 274.204 135.973 274.657 136.32C275.137 136.64 275.497 137.053 275.737 137.56C276.004 138.04 276.137 138.627 276.137 139.32C276.137 140.28 275.911 141.067 275.457 141.68C275.031 142.293 274.431 142.747 273.657 143.04C272.884 143.307 272.017 143.44 271.057 143.44H267.377V124.56H270.457C271.711 124.56 272.697 124.84 273.417 125.4C274.164 125.96 274.537 126.773 274.537 127.84C274.537 128.533 274.364 129.133 274.017 129.64C273.697 130.147 273.231 130.533 272.617 130.8C272.004 131.067 271.284 131.2 270.457 131.2H265.937V133.8ZM293.252 134.96L301.652 148H308.412L299.292 134.96H293.252ZM286.892 120V148H292.612V120H286.892ZM290.372 124.88H295.932C296.945 124.88 297.812 125.053 298.532 125.4C299.278 125.72 299.852 126.2 300.252 126.84C300.652 127.453 300.852 128.2 300.852 129.08C300.852 129.96 300.652 130.72 300.252 131.36C299.852 131.973 299.278 132.453 298.532 132.8C297.812 133.12 296.945 133.28 295.932 133.28H290.372V137.84H296.292C298.505 137.84 300.385 137.467 301.932 136.72C303.478 135.973 304.665 134.933 305.492 133.6C306.318 132.24 306.732 130.68 306.732 128.92C306.732 127.133 306.318 125.573 305.492 124.24C304.665 122.907 303.478 121.867 301.932 121.12C300.385 120.373 298.505 120 296.292 120H290.372V124.88ZM316.136 134C316.136 132.213 316.51 130.627 317.256 129.24C318.003 127.853 319.03 126.76 320.336 125.96C321.643 125.16 323.163 124.76 324.896 124.76C326.656 124.76 328.19 125.16 329.496 125.96C330.803 126.76 331.816 127.853 332.536 129.24C333.256 130.627 333.616 132.213 333.616 134C333.616 135.787 333.243 137.373 332.496 138.76C331.776 140.147 330.763 141.24 329.456 142.04C328.15 142.84 326.63 143.24 324.896 143.24C323.163 143.24 321.643 142.84 320.336 142.04C319.03 141.24 318.003 140.147 317.256 138.76C316.51 137.373 316.136 135.787 316.136 134ZM310.096 134C310.096 136.107 310.456 138.067 311.176 139.88C311.896 141.667 312.923 143.227 314.256 144.56C315.59 145.893 317.15 146.933 318.936 147.68C320.75 148.4 322.736 148.76 324.896 148.76C327.056 148.76 329.03 148.4 330.816 147.68C332.63 146.933 334.19 145.893 335.496 144.56C336.83 143.227 337.856 141.667 338.576 139.88C339.323 138.067 339.696 136.107 339.696 134C339.696 131.867 339.323 129.92 338.576 128.16C337.856 126.373 336.816 124.827 335.456 123.52C334.123 122.213 332.563 121.213 330.776 120.52C328.99 119.8 327.03 119.44 324.896 119.44C322.79 119.44 320.83 119.8 319.016 120.52C317.23 121.213 315.67 122.213 314.336 123.52C313.003 124.827 311.963 126.373 311.216 128.16C310.47 129.92 310.096 131.867 310.096 134Z" fill="#D0E89F"/>
</svg>
